<svg xmlns="http://www.w3.org/2000/svg" xmlns:xlink="http://www.w3.org/1999/xlink" viewBox="0 0 726 1089"><defs><style>.cls-1{fill:none;}.cls-2{clip-path:url(#clip-path);}.cls-3{fill:#f0ead2;}.cls-4{fill:#dd9828;}.cls-5{fill:#eea72e;}.cls-6{fill:#cb5e45;}.cls-7{fill:#faf3d4;}.cls-8{fill:#ad2726;}.cls-9{fill:#e6bb54;}.cls-10{fill:#d3a944;}.cls-11{fill:#ac352b;}.cls-12{fill:#bd2b2c;}.cls-13{fill:#e1ba83;}.cls-14{fill:#a42324;}.cls-15{fill:#e4dbc0;}.cls-16{fill:#941c20;}.cls-17{fill:#f4ebe1;}.cls-18{fill:#f4ece3;}.cls-19{fill:#943d2a;}.cls-20{fill:#e3dbbf;}.cls-21{fill:#a82825;}.cls-22{fill:#eaddce;}.cls-23{fill:#ede6c8;}.cls-24{fill:#f2ce99;}.cls-25{fill:#f3e9ca;}.cls-26{fill:#c95b44;}.cls-27{fill:#e29264;}.cls-28{fill:#af4b37;}.cls-29{fill:#e4c290;}.cls-30{fill:#f2e9de;}.cls-31{fill:#e9c58f;}.cls-32{fill:#edc691;}.cls-33{fill:#eee3c5;}.cls-34{fill:#c65942;}.cls-35{fill:#39372c;}.cls-36{fill:#821f1c;}.cls-37{fill:#c7a45e;}.cls-38{fill:#80251d;}.cls-39{fill:#ece0c3;}.cls-40{fill:#363730;}.cls-41{fill:#893e2c;}.cls-42{fill:#898989;}.cls-43{fill:#32261f;}.cls-44{fill:#1b1b18;}.cls-45{fill:#7e7e7e;}.cls-46{fill:#727272;}.cls-47{fill:#6c6c6c;}.cls-48{fill:#818181;}.cls-49{fill:#646464;}.cls-50{fill:#5f5f5f;}.cls-51{fill:#6e6e6e;}.cls-52{fill:#797979;}.cls-53{fill:#e29c28;}.cls-54{fill:#5a5a5a;}.cls-55{fill:#9b9b9b;}.cls-56{fill:#7d7d7d;}.cls-57{fill:#565656;}.cls-58{fill:#686868;}.cls-59{fill:#5c5c5c;}.cls-60{fill:#eae5de;}.cls-61{fill:#faeec4;}.cls-62{fill:#fcf1c6;}.cls-63{fill:#8e8e8e;}.cls-64{fill:#c19b4b;}.cls-65{fill:#b99444;}.cls-66{fill:#b99746;}.cls-67{fill:#b79241;}.cls-68{fill:#b89241;}.cls-69{fill:#b69244;}.cls-70{fill:#c19b49;}.cls-71{fill:#c49c53;}.cls-72{fill:#b38b43;}.cls-73{fill:#e1be72;}.cls-74{fill:#caa65d;}.cls-75{fill:#be9a4b;}.cls-76{fill:#4a5c2a;}.cls-77{fill:#566b30;}.cls-78{fill:#637c38;}.cls-79{fill:#2c251c;}.cls-80{fill:#9a322d;}.cls-81{fill:#0b0907;}.cls-82{fill:#858068;}.cls-83{fill:#10120c;}.cls-84{fill:#7b7760;}.cls-85{fill:#726e54;}.cls-86{fill:#7f7960;}.cls-87{fill:#827c63;}.cls-88{fill:#7f7961;}.cls-89{fill:#767057;}.cls-90{fill:#716a56;}.cls-91{fill:#9b977e;}.cls-92{fill:#6a654d;}.cls-93{fill:#837d61;}.cls-94{fill:#bbb59d;}.cls-95{fill:#bcb79f;}.cls-96{fill:#b7b49c;}.cls-97{fill:#cbc5ab;}.cls-98{fill:#7a765e;}.cls-99{fill:#6c674e;}.cls-100{fill:#c1bca7;}.cls-101{fill:#beb9a0;}.cls-102{fill:#6a654e;}.cls-103{fill:#6a664b;}.cls-104{fill:#696650;}.cls-105{fill:#706c53;}.cls-106{fill:#bb2a2b;}.cls-107{fill:#8e221c;}.cls-108{fill:#be4233;}.cls-109{fill:#853f27;}.cls-110{fill:#daaf7d;}.cls-111{fill:#f8d39c;}.cls-112{fill:#dbb56b;}.cls-113{fill:#edc38d;}.cls-114{fill:#e1d8b7;}.cls-115{fill:#fdf8ee;}.cls-116{fill:#ad8b3d;}.cls-117{fill:#4b4327;}.cls-118{fill:#c0a863;}.cls-119{fill:#847c66;}.cls-120{fill:#eee0d2;}.cls-121{fill:#e6d3be;}.cls-122{fill:#8c211e;}.cls-123{fill:#781f17;}.cls-124{fill:#9e2822;}.cls-125{fill:#fbfaf8;}.cls-126{fill:#1b1a16;}.cls-127{fill:#fafafa;}.cls-128{fill:#f7f7f7;}.cls-129{fill:#f1f1f1;}.cls-130{fill:#f6f6f6;}.cls-131{fill:#f2f2f2;}.cls-132{fill:#d0ac64;}.cls-133{fill:#d0ab5b;}.cls-134{fill:#cda959;}.cls-135{fill:#cca857;}.cls-136{fill:#c3a052;}.cls-137{fill:#c6a252;}.cls-138{fill:#c3a352;}.cls-139{fill:#d3af5d;}.cls-140{fill:#c59e5a;}.cls-141{fill:#d0bf93;}.cls-142{fill:#f3eacb;}.cls-143{fill:#da972a;}.cls-144{fill:#bf8627;}.cls-145{fill:#8c211d;}.cls-146{fill:#4b6126;}.cls-147{fill:#fbfbf5;}.cls-148{fill:#b38c3e;}.cls-149{fill:#45432d;}.cls-150{fill:#f4b783;}.cls-151{fill:#f0e3d7;}.cls-152{fill:#f19f70;}</style><clipPath id="clip-path" transform="translate(44 -5)"><circle class="cls-1" cx="318.5" cy="318.5" r="318.5"/></clipPath></defs><g id="Capa_2" data-name="Capa 2"><g id="Capa_1-2" data-name="Capa 1"><g class="cls-2"><path class="cls-3" d="M-43.84,548.52q0-268-.16-536C-44,6.45-43,5-36.64,5q355.5.32,711,0c7.14,0,7.62,2.19,7.62,8.14q-.21,536.44,0,1072.89c0,6.39-1.12,8-7.81,8q-355.05-.35-710.08,0c-7.28,0-8.1-2.17-8.09-8.58Q-43.71,817-43.84,548.52Z" transform="translate(44 -5)"/><path class="cls-4" d="M115.63,246.15c1.16-19.55,7.66-37.54,16.32-54.83,24.53-48.95,62.66-83.55,114.34-100.63,71.18-23.51,137.52-11.93,195.38,36.63,49.88,41.87,72.64,96.75,70.8,161.66-.79,28.16-8.45,54.78-20.56,80.18-1.72,3.59-5.73,5.51-6.34,9.7-6.23-2.08-4.75-6.46-3-10.67,1.82-4.39,4.23-8.54,5.07-13.31,1.1-6.25.54-11.9-5.61-15.55-.45-1.15-.74-2.49-.06-3.45,7.13-10,6.36-19.92.23-30a3.65,3.65,0,0,1,0-3.43c3.6-1.59,7.39-3.06,6.76-8.15-1.56-12.45-.66-25.17-4.19-37.41A19.27,19.27,0,0,0,478,246.54c-1.86-3.36-.19-6.42.79-9.56,5.24-16.91,1.39-24.39-15.46-30.13a10.34,10.34,0,0,1-2.41-1.23c5.58-8.26,2.29-16.29-1.31-23.84-5.66-11.85-13.06-22.46-25.14-28.84a12.69,12.69,0,0,1-3.15-4.34c-7.92-15.17-16.3-18.52-32.28-12.91-1.44.51-2.83,1-4.28.08-.76-5.75-3.63-8.94-9.82-9.32-4.15-.25-8.13-2.06-12.32-2.56-13.14-1.59-13.3-1.5-19.86,10.43-.79,1.44-1.84,2.36-3.58,1.29-2.89-4.72-1.57-10-1.83-15-.7-13.65-8.45-21.86-21.12-22.13-12-.26-19.64,7.61-21,21.23-.49,5,1.14,10.33-2.49,14.78-6.23,1.26-6.61-3.92-8.11-7.58-4.17-10.23-4.71-10.59-15.4-7.8-1.76.46-3.54.77-5.31,1.14-9.81,2.07-10.57,3.27-7.14,12.76,1.57,4.36,1.85,8.82,2.22,13.34,1.22,14.73,6.5,19.55,21.11,19.62,12.09.05,24.18-.25,36.26.19,2.58.1,6.48-.08,6.67,3.09.22,3.45-3.69,3-6.22,3.5-12,.41-24.09-.75-36.09,1.86-44.71,9.73-77.13,43-84.57,87.42-1.76,10.49-.49,21.1-.82,31.65-.09,3.29.17,6.62-.48,9.86-.81,4-2.37,7.67-7.19,7.92s-7-3-7.84-7.11C187.63,293,179.17,287.52,169.78,283c-6-2.85-12.46-.09-18.63-1.17-2.55-4.72,1.3-6,4.21-6.17,9.47-.69,19.17-2.5,28.35,3,3.14-6.35,2.72-13.44,4.95-19.86,1.13-3.27-.63-5.06-4.1-5.26-3.62-.2-7.5-.2-7.25-5.54,1.58-1.55,3.69-1.89,5.67-2.54,17.83-5.88,23.33-23.16,12.64-39.15-2.61-3.91-7.22-6.52-7.76-11.78,5.82-5,9.69.12,12.8,3.36,4.74,4.92,8,7,12.09-.42,2.71-4.91,7.05-4.7,11.71-2.55,3.46,1.59,6.18,1.4,4.9-3.59-1.65-6.46,4.8-8.39,6.93-12.72,2.49-1.89,5.58-2.15,8.39-3.18,14.23-5.17,19.92-17.07,15.56-32.67-4-14.43-15.93-21.78-30.27-18.7-10.39,2.23-18.55,18.41-14.42,29.28,3.4,8.91,6.55,18.19,17,21.74a4.29,4.29,0,0,1,3.22,3.94c-2.38,2.91-5.46,2.45-8.23,1.17-10.86-5-18.77-12.84-22.76-24.35-.88-2.54.83-7.52-3.45-7s-9.63.56-12.2,4.79c-5.28,8.68-7.66,18.95-15,26.62-2.32,2.42,1.13,3.17,2.75,4.28,3.14,2.14,8.65,2.17,7.58,8.22-2.19,1.52-4.58,1.08-7,.89-12.91-1-22.91,7.07-24.64,19.78-.44,3.26,0,6.7-1.89,9.67-8.14,4.12-13.19,11.33-17.93,18.66-3.59,5.57-6.61,11.49-11.47,16.16A7.42,7.42,0,0,0,119,264.4c2.35,15-1.08,30.1,1.07,45.07,1.51,10.54,6.9,19.86,9.53,30.06a6.41,6.41,0,0,0,4.28,4.45c12.79,3.19,19.89,14.16,29.56,21.55,3.9,3,4.71,1.73,6.2-1.8,1.39-3.27,1-8.16,6.4-8.47,3.09,4.37,2.61,9.48,1.65,14-2,9.46,1.28,16.54,8,22.64,5.07,5.33,6.54,12.38,9.18,18.89-.07,7.07-1,14.09-.71,21.18.1,2.87.69,6.89-4.23,7.2-28.75-21.74-49.76-49.58-63.58-82.66-6.67-16-11.2-32.77-12.32-50.25C113.11,286.2,111.11,266.09,115.63,246.15Z" transform="translate(44 -5)"/><path class="cls-5" d="M349.85,135.86c2.51-6.14,2.11-14.84,11.65-15.15,5.27-.18,10.61.9,15.88,1.72,3.51.55,7,2.44,10.4,2.3,9.05-.37,10.25,3.79,7.38,11-.48,3.91-3.83,6-5.79,8.92-11,16.56-2.4,39.54,15.34,40.82,11.87.85,24.56-10.21,27.67-24.07.71-3.13-.08-6.74,2.78-9.23,8-.23,11.12,6.66,15.4,11.21,8.59,9.12,12.82,20.74,16.51,32.57,2.08,6.66-4,6.1-6.61,8.65-2.07,2.73-5.4,2.27-8.17,3.19-13.76,4.58-23.09,17.25-21.75,29.65,1.92,17.72,22.42,25.33,38.3,14.29,3-2.11,5.05-6.28,9.79-5.28,3.42-1.86,5,.11,6,3,1.65,4.8,4.07,9.54,4.64,14.48,1.22,10.66,1.39,21.43,2.14,32.14.51,7.22-2.48,9.31-9.07,6.66-4.74,1.14-8.65-1.89-13-2.6-18.33-3-35.18,13.43-32.25,31.66,2.05,12.75,13.46,20.07,26,16.66,7.06-1.92,13.08-6,19.42-9.36,11-.4,7.79,8.45,8,13.76.2,5.47-2.63,10.85-5.65,15.67-2.33,3.71-2.66,7.14.84,10.32-3.81,10.64-11.07,19-18,27.6-16.46,20.25-35.75,37.14-59.15,49.05-5.82,2.06-8.91-.1-9.49-6.13.31-4.93,4.71-6.89,7.34-10.14,4.5-4.89,1.72-12.49,6.4-17.3,8.53-5.51,17.95-9.89,20.64-21.33,3.32-14.07-1.64-23.54-15.46-27.92-2.54-.8-5.43-.78-7.3-3.17-1.62-10.87-8.31-20.57-7.35-32a8,8,0,0,1,1.26-4.29C419,312.61,419.62,289.1,418,265.39c-1.23-18.59-9.07-34.92-20.13-49.66a106.91,106.91,0,0,0-46-35.43c-1.68-.68-3.31-1.5-4.19-3.24,2.35-3.43,2.69-5.72-2.38-7.19-8.38-2.42-11.31-11.13-17.45-16.23C336.87,149.77,342.18,141.36,349.85,135.86Z" transform="translate(44 -5)"/><path class="cls-6" d="M186.22,758.54c-4.06-3.71-6.83-8.37-9.38-13.14-3.35-6.25-7.29-11.07-15.54-9.37-5.6,1.15-6.85-3.32-5.06-6.55,7.65-13.73.28-23.32-7.92-33-1.17-1.37-1.84-3.19-3.1-4.45-10.59-10.61-15.86-22.45-9-37.25,8.08,1,11.21,8.38,16.57,12.84,8.37,7,15.57,8.9,22.94,4.37,5.18-3.2,10.75-5.32,16.24-7.73a56.89,56.89,0,0,0,11.24-3.9c14-4.52,27.35-10.82,41.48-15,26.14-8.31,52.27-16.65,78.87-23.35,5-.89,9.7-2.69,14.76-3.07,14.06,9.18,27.22,19.36,36.28,33.92a5.29,5.29,0,0,1-.72,2.59c-9.48,6-20.53,8.35-30.7,12.82a586.05,586.05,0,0,0-78.06,41.9c-3.32,2.1-6.94,3.67-10.22,5.83-19.72,11.61-38.49,24.66-57.36,37.57C194,756,190.88,758.93,186.22,758.54Z" transform="translate(44 -5)"/><path class="cls-7" d="M424.21,515.08c2.56.14,4.07,5.72,7.49,1.46,6.63,10.57,13.69,20.88,19.49,32,3,6,3.83,14.76,14.33,11.44,3.33-.21,6.65-.19,10-.12,15.57.33,25.91,11.69,24.18,27.08-2.54,22.57-9.3,43.92-18.73,64.57-5.5,12-9.24,24.75-10,38.14a3.67,3.67,0,0,1-1.93,2c-4.64-.24-6.76-4.59-10.47-6.36a44.18,44.18,0,0,0-35.81-6.49,16.21,16.21,0,0,1-5.28-.58c-1.44-.55-3.1-1.37-3.06-2.94.37-12.82-11.17-16.67-18-24-.66-.72-2.29-.49-3.46-.8-7.1-7.6-14.95-14.53-20.77-23.29.64-4.34-.15-9,3.33-12.64,5.91-.24,5.93-5.44,8-9.11,1-1.82.61-1.39-.75-1.26-3.13.28-5.06-2.89-8.13-2.87a5.27,5.27,0,0,1-3.68-3.6,6.27,6.27,0,0,1,.3-2.75,58.15,58.15,0,0,0,6.25-18.79c2.53-16.2,8.35-31.49,13.39-47,4.51-13.86,10.94-17,25.44-13.92C418.9,515.76,421.6,516.67,424.21,515.08Z" transform="translate(44 -5)"/><path class="cls-8" d="M253.72,714.67c37.71-24.27,76.52-46.37,119.59-60,7.78,2.7,10.83,11,17.69,14.84a12,12,0,0,1,2,1.52c3.47,6,9.85,9.87,12.06,16.76a26.62,26.62,0,0,1,0,5c-1.49,4.34,2.61,8.16,1.15,12.5,1.35,9.93.13,20.05,3.88,29.89,1.43,3.74,1,9.07-2.36,13.6-4,5.38.56,21.91,5.93,26.39,5.12,4.27,4.22,9.76,1.49,14.66-2.18,3.92-2.45,6.58,1.61,9,2.27,1.38,2.83,3.76,3.19,6.22.82,5.68-1.38,8-6.28,5.56-6.21-3.14-9.2-.13-14.63,2.71-7.22,3.77-14.66,6.59-20.63,12.55-1.59,1.59-4.64.78-7-.18a13.6,13.6,0,0,1-2.32-1.24c-8.07-6.13-15.21-13.37-23.23-19.57-7.19-3.34-15.19-2.51-22.66-4.45-4.33-1.12-8.81-1.66-12-5.29-3.41-7-6.73-14.11-8.17-21.89-2.71-8.44-8.6-13.2-17.1-15.23-3.48-.84-7.09-1.06-10.45-2.4a28,28,0,0,1-8.87-8.57c-3.76-8.59-3.73-19-12.82-25.06C251.59,720.57,251.73,717.17,253.72,714.67Z" transform="translate(44 -5)"/><path class="cls-9" d="M505.75,542.41c4.87,7.67,0,13.58-3.56,19.73-2.2,4.18-6.11,3.88-9.28,2.45-8.76-3.93-17.92-3.28-27-3.34-5.39-2.36-4-6.94-3.1-10.89,3.05-13.61,9-26.22,14.69-38.83a58.31,58.31,0,0,0,4.2-11.75c2.56-11.69,9.37-20.8,18.85-27.87,3.2-2.39,6.5-4.33,6.42-9a5.74,5.74,0,0,1,2-4c10.55-9.81,16.37-24.34,30.51-30.57,1.3-.57,3.7-1.86,2.56-2.95-5.16-4.95,0-12.86-5.43-17.51,6-5,13-7.33,20.59-8.31,1.81-.23,3.86-.75,5,1,1.64,2.48-3.29,2.45-2.05,5.32,7.22-1.11,13.79-5.86,21.56-5.05,2.4,2.86-2.51,3.82-1.16,6.74,10.74-.18,20.84,3.29,30.32,8.69,2.35,1.34,5.31,3.2,5.18,5.87-.16,3.53-4.23,2.78-6.54,3.32-6.15,1.42-12.5,1.94-18.68,3.23-5.07,1.06-10.57,2.43-3,9.77-11.6,2.23-22.54,2.05-32.3,6.94.06.49-.09,1.31.22,1.57,2.87,2.38,9.3,1.79,8.8,6.24-.45,4-6.14,1.54-9.39,2.63-5.53,1.84-11.33,2.88-16.83,5.85l12.86,1.51c-6.14,6.53-14.39,6-20.49,11,1.93,2,6.58.29,6.73,3.85.14,3.2-2.09,5.56-4.58,7.43s-4.83,3.56-7.34,5.2-5,3-7.56,4.58c.78.88,1.06,1.43,1.49,1.64,3,1.42,8.39-1.91,9.09,2.78.57,3.86-3.68,6.62-7.19,8.55-4.13,2.27-8.38,4.32-14.71,7.55l11.33,2.1c-2.2,7.36-9.86,8.61-13.94,13.44C495.51,536.41,502.22,539.16,505.75,542.41Z" transform="translate(44 -5)"/><path class="cls-10" d="M536.6,407.88c2.85.16,5.38.43,5.56,4.32.21,4.29-3.79,10.21,4.55,11.79,1.42.27.23,3.21-1.58,4.16-2.14,1.12-4.36,2.07-6.5,3.18-2.92,1.52-8,2.8-8.31,4.74-1.58,11-13.73,12.79-17.49,21.52-1.31,3.05-7.18,4.71-2.67,9.71,1.22,1.35-1.39,1.93-2.58,2.68-13.21,8.3-22.63,18.55-24.34,35.52-.58,5.76-6.07,11.92-8.65,18.25-4.87,11.88-10.89,23.44-10.25,36.85l-1.13.57c-4.84,0-3.66-3.38-3.5-6.2-4.83,4.34-6-1.19-8.42-3.19a6.07,6.07,0,0,1-1.37-2.24c-5.94-11.07-15.6-20.09-18.22-33,.13-4.17-3.53-7.63-2.31-12.46,6.38.87,8.67,7.19,14.89,10.59-1.65-11-3.18-20.89-4.6-30.79-.49-3.37-3.21-7.81.35-9.88,3.26-1.88,6.55,1.81,9.46,3.9.91.66,1.87,1.24,3.63,2.39.52-13.65-4.54-26.71,1.1-39.75,3.83,2.62,2.32,6.68,4.3,9.22,2.52,1.1.55,11.32,7.4,3.65,3.51-7.26,4.4-15.59,9.37-23.32,3.32,4.05,1.37,8.38,2.53,13,6.79-10.85,11.66-22.24,20.91-31.27,3.19,3.91.16,8.48,2.4,12.73,7.94-7.32,15.26-15.54,25.31-20.4,2.42,3.65-.94,6.68-.24,10C531.2,414.32,532.75,409.18,536.6,407.88Z" transform="translate(44 -5)"/><path class="cls-11" d="M253.72,714.67c.13,4.37,1.25,7.26,6,9.49s4.68,8.85,6.46,13.62c1.12,3,1.36,6.3,2,9.47-18.69,3.84-21.69,17.81-23.14,33.89-1.19,13.29.62,26.48-.45,39.67-.43,5.24,1.77,7.19,6.59,7.33,3,.09,6.09-.24,9,.35,2.58.52,6.64-.43,6.05,4.52-5.52,3.5-11.68,1.8-17.57,2.06-6.88.29-13.8-.16-20.63.89-6.54,1.67-13.08,3.34-15.5,10.89-4.69-3.39-10.92.57-15.52-3.23-5.75-17.5-6.41-35.82-8.36-53.89-1.12-10.34-3.65-20.64-2.5-31.19C208.58,743.71,230.15,727.64,253.72,714.67Z" transform="translate(44 -5)"/><path class="cls-12" d="M184.72,479l16.15,10.75c5.79,6.36,4.83,13.69,3,21.13-.86,3.48-1.74,7-2.76,10.39-3.17,22.72-5,45.59-6.22,68.47-.94,17.51,1.05,35,3.8,52.26a8.68,8.68,0,0,1-.21,4.44c-1.86.63-3.09,1.39-2,3.84.61,1.39-.16,2.9-1.81,3.57-10.84-3.06-17.4-11.27-22.9-20.14-23.68-38.16-27.19-79.11-15.88-121.87,1.54-5.83,3.1-11.66,4.55-17.52C164.18,479.2,169.62,475.69,184.72,479Z" transform="translate(44 -5)"/><path class="cls-13" d="M217,495.42c-8.43-6.84-13.34-16.1-17.79-25.69,21.42-16.31,21.45-36.7-.14-53.87-4.58-3.64-5.55-8.26-5.71-13.5,2-14.3,7.49-27.44,13.28-40.49,5-9.88,12.07-15.52,24.17-14.7,8.33.57,12.83-4.3,15-12.71.88-3.48,1.55-7,2.77-10.41,5.85-13.08,16.57-18.33,30.11-14.79,2,3.83-1.39,4.95-3.53,5.8-17.7,7-20.49,24.06-26.12,38.95-2.3,6.11-3.09,12.86-5.21,19.14-5.69.75-5,8.43-10.37,9.58-3.28-3.11,0-12.72-9.5-9.63-3.83,2.1-9.49,1.94-9.89,8.15.56,2.22,2.1,4,2.66,6.23,1.35,4,4.71,5.49,8.27,6.76,5.41.74,7.85,2.95,8.41,9.28a178.07,178.07,0,0,0,17.16,62.34c2.21,4.56,6,5.61,10.36,5.85s8.37-.92,12.54-1.55a6.16,6.16,0,0,1,3.92.81c2.53,8-4.68,7.4-8.61,9.7-2.43,1.41-7,.37-7.14,4.05-.09,3,3.92,4.14,6.32,5.86,5.22,3.72,11.23,5.64,17.17,7.82,3,1.09,7.13,1.77,7.24,5.79s-4,4.68-7,6a24.79,24.79,0,0,1-2.55.89c-9,3.86-18.47,1.64-27.71,2.05-2.45.1-1.94,1.64-3,2.17-7.88-5-15.79-9.89-25.55-10.18C221.7,503.47,219.64,499.14,217,495.42Z" transform="translate(44 -5)"/><path class="cls-14" d="M184.72,479c-2.39,3-5,0-7.49.35-8.87,1.33-12.82,5.95-14.59,15.5-3.63,19.7-11.47,38.64-10.52,59.16,1.3,28.23,5.52,55.7,22.15,79.68a59.19,59.19,0,0,0,21.34,19.22c4.83-.31,3,4.87,5.4,6.53a7.09,7.09,0,0,1,1.9,2.89c-3.06,2.8-6.83,3.46-10.79,3.55-2.23-1.52-3-4.72-5.94-5.37-14.32-3.18-22.13-14.34-29.49-25.28a149.58,149.58,0,0,1-23.92-58.87,38.89,38.89,0,0,0-5.51-15.23c-3.41-5.11-3.31-10.2-.83-15.41,7.49-15.79,6.26-32.6,5.77-49.29-.16-5.74,2-11.35.68-17.1,1.75-7.95,4.17-15.36,13.76-16.95C161.49,463,173,471.21,184.72,479Z" transform="translate(44 -5)"/><path class="cls-15" d="M371.76,597l2.87,3.17c-.53,5.07,2.42,9.66,2,14.71-2.75,4-.15,9.36-3.45,13.2-6.32,1.55-10.71-3.78-16.38-4.54-4.55-2-9.48-2.54-14.24-3.75-10-3.61-10.42-4.81-5.77-15,12.34-26.85,24.88-53.62,35.92-81,1.65-4.18,5.24-7.25,6.62-11.59,2.75-5.85,4.05-13.14,12.82-13.06,1.48.28,3,.25,4.48.6,7.18,1.75,8.86-1.71,8.94-8.21.07-6.13-2.08-12.74,2.47-18.32,3.11,4.68,2.41,10.19,1.61,14.93-2.24,13.19,4,21.08,14.59,26.91-1.81,6-5.94,3.59-9.43,2.39-10.21-3.52-17.54-.61-20.91,9.85-5.57,17.3-12,34.41-14.78,52.48-1,6.44-3,12.06-7.14,17-8.17-2.83-4.51,5.77-7.53,7.14C366.72,602,365.87,596.26,371.76,597Z" transform="translate(44 -5)"/><path class="cls-16" d="M134.24,478.72c3.93,8.29-.25,16.88.52,25.45.64,7-.4,14.9-.77,22.4-.16,3.32.16,6.69-1.47,9.75-5.22,9.74-5.53,18.25-1.16,29.7,6.09,16,9,33.62,16.2,49.21,6.69,14.5,15.64,28.43,28.69,38.67,2.54,2,6.23,4.43,8.9,4,7.82-1.41,6.74,3.59,7,8-5.6,3.85-12,6.17-17.86,9.73-4.7,2.89-11.34,1.93-17-1.6-8.24-5.17-13.62-13.32-21.12-19.19-6.15-21-8.72-42.58-11.28-64.19-1-8-1.68-16-2.07-24a96.1,96.1,0,0,1,7.83-42.6c1.73-6.68-.61-13.62,1.34-20.29-1.94-3.91-1.83-8.1-1.66-12.29C133.52,487.77,127.89,481.41,134.24,478.72Z" transform="translate(44 -5)"/><path class="cls-17" d="M549.38,921.47c12.43,4.91,13.41,8.09,15,21.69,1,8.44.09,16.6.33,24.87.06,2,.64,3.64-1.89,4-1.86.28-4,.1-4.69-1.85-3.39-9.39-12.5-4.61-18.58-9.86.26,5.81,4.57,3.72,5.38,6,1.09,3.08,2.55,7.16-2.8,7.16-3.11,0-6.33-1.55-6.81,2.93-.44,4.13,3.08,4.5,6.09,5.15.68.14,1.2,1,2.55,2.14-7.81,2.42-11.6-2.87-15.11-6.64-2.32-2.49-4-3.61-6.6-2-6.13,3.88-13.51,1.15-19.87,4.21-2.84,1.37-5.71-.79-8-3.06s-5.58-3.4-8.1-1c-3.18,3.09,1.56,3.51,2.5,5.26a2.64,2.64,0,0,1-.14,3.29,2.83,2.83,0,0,1-4.1.17c-7.26-6.37-14.6-1.73-21.92-.35-.86.16-2.14,1-2.48.64-9.12-8.48-20.1,1.28-28-1.89-15.21-6.09-31.77,2.47-45.95-6.54-1-3.38,1.31-4.92,3.64-6.44,12.44.68,24.78-.86,37.14-1.46a66,66,0,0,1,21.75,2.45c8.95,2.82,16.48-3.16,24.83-1.12,1.85.45.78-3.93,3.29-4.48,2.42-.78,7,3.41,6.72-3.77-.13-3.55,4.49-3.72,7.34-2.46a33.52,33.52,0,0,0,13.94,3.19c2.34,0,5.12.41,5.6,3.5.6,3.92-2.33,4.65-5.31,5.21,4.27,1,6-1,6.34-5,.27-3.36.7-6.85,5-7.5s7.52.91,8.58,4.51c5.54-2.08-.06-13.22,9.65-12.78-3.06-2.53-8.2-6.12-4.06-11s8.67-1.51,12.22,3c-1.31-3.75-4.53-4.51-7.4-5.6-1.91-.73-4.63-.67-4.16-3.63.43-2.68,2.52-4,5.23-4.08a44.66,44.66,0,0,1,4.49.07c2.87.25,3.33.28,2.51-3.17S546.74,921.84,549.38,921.47Z" transform="translate(44 -5)"/><path class="cls-18" d="M389.75,970.43q-1.8,2.72-3.62,5.43c-7.1-.22-14.08-.63-16.68,8.48-1,3.58-4.27,2.18-6.92,1.54-4.65-1.12-9.39-3-11.78,3.87-1.05,3-3.83,1.82-6.16.72-10.91-5.15-22.27-6.87-34.13-4.12-2.67.62-3.81-1-5-2.84s-2.3-3.54-3.56-5.22c-1.65-2.22-3.9-3.26-6.18-1.3-2.65,2.29.18,3.55,1.45,5,.93,1,2.83,1.26,2.7,3.24-.37.4-.92,1.24-1.11,1.17-15.49-6.07-33.83-3.64-47.42-14.7-6.73-5.47-11.83-11.69-21.56-6.25-2.1,1.17-5.81-.51-8.75-.88-.95-1.79.7-2.69,1.21-4s1.85-2.47.69-4.18c-4.51-1-4.13,4.67-8.09,5.47l-1.07-9.61c1.18-3.16,4-3.59,6.76-4,9.31.86,14.46-7.18,21.91-10.31a18.94,18.94,0,0,1,5.36-.44,15.16,15.16,0,0,1,3.95.75c2.81,1.24,5.75,2.27,7.73,4.83-1.5,5.4-3.88,10.69-1.67,17.26,3.46-3.74,7.18-5.38,9.19,1.06,1,3.18,2.2,5,5.54,2.41,1.92-1.48,4-1.12,5.95-.17,3.72,1.8,6.4,2.85,9.77-1.75,2.6-3.55,7.78-1.15,11.78.06a3.88,3.88,0,0,1,1.63,1.88c.85,1.71-3.82,5.13,1.9,5.46,2.74.16,4.72,3.39,7.93,2.7,3.59-1,7.29.08,10.89-.6,8-2.42,13.1,1.4,16.88,8.26-.49-1.51.7-.25.65-.3-5.15-5.07-4.3-8.2,3-7.39,3.63.4,5.39.93,6.09-3.39.53-3.23,3.74-3.41,5.72-1.84,7.62,6,15.2,2.94,23.08.89C382,966.53,387.21,963.65,389.75,970.43Z" transform="translate(44 -5)"/><path class="cls-19" d="M468,691a5.31,5.31,0,0,1,1.48.28c2,.63,2.72,2,2.51,4a42,42,0,0,0-1.31,19.64c1.11,6.78,4.21,10.34,11.68,8.84,4.11-.83,8.37-1,12.54-1.71a12,12,0,0,1,3.91.48,146.73,146.73,0,0,0,24.86-2.42c7.12-1.2,12.8-4.91,15.8-11.93.8-1.87,1.4-4,4-4.58,2.16,2.26,1.62,4.77.59,7.33-6.24,22.5-20,27.79-45.51,30.77-6.55.76-13.34-.51-19.9.25-21.5,2.48-40.87-14.25-41.66-39.86-.15-4.82,0-9.66.07-14.49,4.92-3.76,9.57.06,14.34.5A166.34,166.34,0,0,1,468,691Z" transform="translate(44 -5)"/><path class="cls-20" d="M511.15,569.52a125.18,125.18,0,0,1,20.57,12.38c5.28,3.86,6.86,8.82,2.44,13.72-4.26,4.74-5,9.9-4.78,15.67-8.37,9.88-12.81,22-18.63,33.27-7.38,14.56-15.27,28.86-22.7,43.4a23.65,23.65,0,0,1-3,4.56,6.41,6.41,0,0,1-3.69,1.88c-8-.94-7.08-6.47-5-11.3a600.74,600.74,0,0,0,28.9-82.38c2.05-7.62,3-15.22,1.35-23.17C506,574.37,503,568.41,511.15,569.52Z" transform="translate(44 -5)"/><path class="cls-21" d="M369.78,823.48c5.86,1,12.11,3.38,13-6.44.45-4.88,4.46-4.91,8.34-3.71,3.22,1,6.22,2.38,7.75-2.66,2.51-8.26,8.17-5.87,13.59-3.36,1.86.86,3.57,4.82,5.62,1.48,1.72-2.82,1.38-7.11-2.58-8.32-9.43-2.88-6.73-6.7-2-12.05,4.08-4.61,1.71-9.89-4.49-11.06-1.83-.35-2.9-1-2.8-2.66a46.19,46.19,0,0,0-3.64-20.87c-.93-2.27.37-5,2.49-6.35,5.77-3.76,5.39-11.15,3.33-14.19-6.38-9.4-1.59-18.74-2.25-28,3.81,10.39,4.14,21.48,5.8,32.23,5,32.28,9.07,64.7,13.33,97.09.32,2.43,2.73,6.15-2.27,7.15-4.16,2-8.17.5-12.12-.67a156.27,156.27,0,0,0-23.38-5.4c-6.55-1-12.95-2.44-18.2-6.88C368.3,826.94,368.24,825.14,369.78,823.48Z" transform="translate(44 -5)"/><path class="cls-22" d="M549.38,921.47c-7,3.91-1.42,7.38,1,10.48-2.88,2.38-3.61-.44-5.08-.87-4.09-1.18-10.49-1.9-11.71.78-1.82,4,4.6,1.73,6.66,4,2.48,2.75,5.61,4.91,8.63,7.48-3.41,2.74-5.89,1.65-8-1-2.42-3-5.83-6.26-8.8-2.71-2.51,3,0,6.72,3.93,8.56,1.23.58,2,2.09,3.43,3.66-4,.72-13-4.53-7.62,6.25.63,1.27-6.53,3.5-1.61,7.41a11.79,11.79,0,0,1-3.17,1.15c-1.68.11-3.77.54-3.65-2.45.18-4.37-3-4.51-6.17-4.67-4.5-.23-3.47,3.71-3.84,5.8-.69,3.88-1.73,7.46-5.8,8.22s-6-2.73-7.87-5.65c3-3.07,8.42,4.15,9-1.94.25-2.74-5.28-2.93-8.88-1.82-3.3,1-5.64-1.48-8.06-3.19-1.88-1.33-4-2-5.94-.88-2.58,1.55-1.43,3.45.3,5.13,1.36,1.34,1,2.77-.28,3.88s-2.75.86-4.07-.22c-1.63-1.33-3.3-2.61-5-3.91l-.89-.91c-.91-2.88-1.71-5.67-5.37-6.52-3.5-.8-5-3.39-4-6.87,1.1-3.75,3.93-2.66,6.68-2.18,4.67.81,10.25,3.89,10.86-5.15.21-3.17,4.09-2.75,6.85-2,3.6,1,6,4,9.32,5.42,1.7,2.57-2.2,3.56-1.54,7.08,2-2.8,2.32-4.79,1.5-7.11-2.39-1.7-6.24-3.32-3.55-6.81s5.95-1.15,8.59,1.1,3.9,6.21,9.17,6.79c-3.12-4.66-1.36-8.8-.17-13,2.21-7.87,4.56-8.64,12.19-4.26-5.41-2.37-9-9.09-17-5.3-3.75,1.78-9,1.53-11.25-2.82-2.48-4.86,3.14-6.27,5.5-9s4.77-4.08,8.26-1.5c2.49,1.85,5.47,1.69,8.33.48,5.2,2.32,10.5,4.2,16.34,3.59,1.46,3.63,2.95,6.88,7.92,4.11,1.53-.85,3.43,0,4.74,1.39Z" transform="translate(44 -5)"/><path class="cls-23" d="M511.15,569.52c-2.67.24-4,2-3.28,4.31,6.2,21.24-4.75,39.47-9.76,58.85-3.86,15-12.86,28.11-14.53,43.73-.32,3-3.4,4.1-4.72,6.37-2.62,4.53-4.09,8.93,3.46,10.08-3.34,6.71-4.95,6.95-10.74,1.61-.7-1.08-1.39-2.16-2.09-3.23-1.8-15.72,5-29.21,10.42-43.28,4.72-12.14,10.77-23.74,12.08-37.46.76-8,4.79-15.92,5.38-24.68.76-11.3-7.41-23-18.62-23.54-4.81-.23-9.65,0-14.47,0-.7-.4-.92-.78-.68-1.15s.48-.55.72-.55l0,.05a110.53,110.53,0,0,1,31.06,2.27,8.83,8.83,0,0,0,6.79-.73C502.57,567.76,508.82,566.26,511.15,569.52Z" transform="translate(44 -5)"/><path class="cls-24" d="M55.9,382.75c3,3.71,5.86,7.48,8.91,11.14,3.7,4.45,7.36,7.34,9-1.39.5-2.68,1.38-4.61,4.51-4.36a4.55,4.55,0,0,1,4.56,4.63c1.15,15.85,11.34,27,20,39,1.3,9.25-7,22.75-14.34,23.43-3-2.39-6.9-3.78-9-7.32-10-17.23-15.88-36.39-25.82-53.64C51.39,390.18,52.49,386.08,55.9,382.75Z" transform="translate(44 -5)"/><path class="cls-25" d="M88.57,455.21c8.24-5.7,10.86-14.83,14.34-23.44,13.45,11.81,28.34,21.57,43.73,30.61-5.77,4.21-10.66,9.09-12.4,16.34-4.11,3.37-.2,9.21-3.9,12.71,1.6-10.32-7.91-12-13.36-16.32C107.94,467.93,98.08,461.79,88.57,455.21Z" transform="translate(44 -5)"/><path class="cls-26" d="M544.07,710.93c-.2-1.76-.4-3.52-.86-7.59-2.39,12.31-9.33,17.25-18.91,19.31-8.14,1.75-16.69.38-24.7,3.21a17.87,17.87,0,0,1-1.06-2.2c2.56-6.63,7.76-13,2-20.46a57.42,57.42,0,0,0-5.39-6c-2.06-2-5-3.55-4.7-7.14,5.46-6.45,13.44-9.39,18.64-4.67,8.57,7.77,19,8.21,29.09,10.43,2.16.35,3.9,1.69,5.85,2.54C546.63,702.58,546,706.75,544.07,710.93Z" transform="translate(44 -5)"/><path class="cls-27" d="M195.58,402.55c-.62,5.92,1.31,9.55,7,12.87,18.46,10.74,20,39.68,3.43,52.91-2.17,1.74-4.54,1.09-6.85,1.4A63.43,63.43,0,0,1,193.7,449c-.34-3.67-.69-7.22-3.78-9.76,4.75-6.49.25-13.89,2-20.77.71-2.81.45-5.92,1.8-8.67C192.57,406.89,190.7,403.84,195.58,402.55Z" transform="translate(44 -5)"/><path class="cls-28" d="M540.31,698.29c-11.2-2.34-22.94-1.68-32.37-11.06-4.69-4.66-11.84-1.13-16.62,3.81-3.21,1.06-4.15-1.12-5-3.47,6.92-15,14.39-29.66,22.77-43.88,4-3.56,8.09-6.86,13.55-7.81,6.25-1.09,8.13-7.26,12.42-10.63,2.36,3.51,5.93,6.44,5.33,11.34-12.73,3.38-17.22,13.78-20.9,24.76-.75,2.23-1,4.95.94,6.77,2.29,2.12,4.48,0,6.57-.87a23.4,23.4,0,0,1,8.63-2.19c3.31-.07,4.25,1.56,3.24,4.57-9.31,7.83-18.92,13.14-30.27,2.47-.19,8.84,8.51,17.5,17.4,18.35,3,.28,6.06-.17,8.9.9C538,692.52,541.09,694,540.31,698.29Z" transform="translate(44 -5)"/><path class="cls-29" d="M55.9,382.75c-.4,5.11-.9,9.27,2.25,14.87,8.76,15.6,15.2,32.52,22.48,48.95.1.23-.7.87-1.08,1.32-9.19-4.63-16.72-11.57-24.27-18.31-5.37-4.79-5.2-11.92-4.72-18.57.68-9.57-.56-18.56-6.41-26.51-3.43-4.67-4.79-10.2.94-13.22s6.1,3.56,8,6.83Z" transform="translate(44 -5)"/><path class="cls-30" d="M520.37,912.37c-2.38,4.2-6.57,5.39-9.22,1.88-3.19-4.22-4.85.73-7.12,0-4.59-2-8.86-2.31-12.89,1.56a5.32,5.32,0,0,1-6.77.46c-5.34-3.81-11-2.35-16.52-1.28-7.71,1.48-15,1.53-21.14-4.26-2.15-2-4.33-2.14-6.34-.12-7.85,7.87-15.21,3.23-22.64-.74-1-5-.35-9.6,2.74-13.74,2,5.39,5.54,6.54,11.26,5.84,7.71-.94,15.61-.4,23.42-.41,1.47,0,4.06.07,4.24.67,2.86,9.46,9.1,3.77,13.57,2.71,11.63-2.75,23.36-.84,35-1.68C515.08,902.7,515.21,910.75,520.37,912.37Z" transform="translate(44 -5)"/><path class="cls-31" d="M220.5,912.3q-1.45-6.37-2.93-12.74c-.38-10.83-4.61-21.12-4.47-32-.22-6.66,2.76-12.11,6.57-17.24,5.2-7,6.18-6.92,10.6,1,3.48,18.12,6.32,36.32,6.47,54.83a5.29,5.29,0,0,1-3.32,2.58C229.28,910.42,223.69,907.07,220.5,912.3Z" transform="translate(44 -5)"/><path class="cls-32" d="M370.11,829.21c6.25.54,11.95,2.83,17.52,5.53,5.18,7.59,1.87,16.46,3.71,24.56,1.72,5.3,5.53,9.1,9.25,13-2,4-5.77,6.47-8.2,10.09A5.54,5.54,0,0,1,389,884c-3.44-.67-4.84-3.77-7.05-5.92-12.48-13.78-13.49-30.64-12.93-47.94Z" transform="translate(44 -5)"/><path class="cls-33" d="M217,495.42c4.73,1.16,6.55,5.4,9.21,8.74,5.72,8.35,2.08,16.56-.38,24.78-9,3.92-21.08,0-26.91-8.69,2.93-10,5.06-20.09,2-30.5C206.93,489.66,210.33,497.13,217,495.42Z" transform="translate(44 -5)"/><path class="cls-34" d="M538.21,669.53c-3.42-2.86-5.56-2.85-10.87-.12-2.71,1.4-5.07,5.18-8.64,2.17-3.21-2.69-2.66-7-1.68-10.09,3.06-9.71,7.29-18.81,16.07-25.12,3-2.15,4.93-.7,7.34.22l-.2,56.22C532.16,685.7,535.88,677.55,538.21,669.53Z" transform="translate(44 -5)"/><path class="cls-19" d="M538.21,669.53c1.51,7.69-2.05,15.82,2,23.28,2.09,1.31,3.69,3,3.84,5.59-1.31,1.88-2.51.19-3.76-.11-2.61-5.94-7.82-5.53-13-5.46-7.07.08-20.79-9.65-22.86-16.15-.64-2-.87-4.22.44-6s3.95-2,4.81-.88C519.4,682.11,528.75,672.8,538.21,669.53Z" transform="translate(44 -5)"/><path class="cls-35" d="M220.5,912.3c1.45-8.45,7.81-3.69,12.1-4.49,2.36,0,4.17,1.06,4.63,3.36,1.88,9.47,4.94,18.72,5.21,28.49-6.36,5-11.95,11.64-21.37,10.32,4.67-6.73,5.29-13.68,1.07-20.88-.89-1.85-2.53-3.58-.92-5.83C219,919.74,218.57,916.1,220.5,912.3Z" transform="translate(44 -5)"/><path class="cls-36" d="M391.34,859.3c-5.71-7.51-3.6-16.21-3.71-24.56,12.66-2,23.46,5.39,35.4,7-6.37,6.36-13.35,11.53-22.73,12.47A11.71,11.71,0,0,0,391.34,859.3Z" transform="translate(44 -5)"/><path class="cls-37" d="M408,473.24q.06,11.79.1,23.56c0,4.87-.73,8.75-7.17,5.85-3-1.34-6.75.7-9.49-2,10.27-13.51,1.36-28.79,4-43,.68-3.65-1.5-9.07,5.08-9.75-.47,5.71,3,7.37,7.85,7.62C402.57,461.3,408.18,467.33,408,473.24Z" transform="translate(44 -5)"/><path class="cls-38" d="M215.52,867.16c1,8.05,2.25,16.09,3.09,24.17.28,2.71,2.34,5.89-1,8.23l-20.49-55.94c2,.58,4.09,1.31,5.81-.3,5.91-5.52,7.17-1,8.37,3.77,4.26,2.78,3.29,7.31,3.64,11.32C215.16,861.32,213.85,864.33,215.52,867.16Z" transform="translate(44 -5)"/><path class="cls-39" d="M405,692.8c-.16-1.79-.33-3.58-.49-5.37-1.2-5.41-6-8.9-7.65-14-.53-2.67-.62-5.42-1.49-8,.11-5.43-3.88-10.29-2.29-15.94,1.67-.45,3.83-2.54,5-1,6.67,9.13,20.28,13.65,19,28.13-1.13,5.48-5.37,2.81-8.44,3.23C403.46,683,408.69,689.14,405,692.8Z" transform="translate(44 -5)"/><path class="cls-40" d="M391.35,881.42a16.26,16.26,0,0,1,9.24-9.14q9.95,11.91,19.88,23.81c1.45,5.09-.94,9.65-1.94,14.4a2.87,2.87,0,0,1-2.36.46c-5.09-6.42-12.15-11.36-15.33-19.19C398.9,887,393.17,886.07,391.35,881.42Z" transform="translate(44 -5)"/><path class="cls-41" d="M535.1,625.25c-1.43,7.7-5.8,12.42-13.77,13.22-4.66.47-7.34,5.36-12.2,5.22,3.92-10.92,10.38-20.56,15.65-30.8,1-1.95,2.12-3.78,4.6-1.6Q532.23,618.28,535.1,625.25Z" transform="translate(44 -5)"/><path class="cls-42" d="M348.38,1008.72c.76-2.34,2.71-1.85,2.74-.26.26,13.68.15,27.37-.53,41.17-5.34-8.85-7.63-18.74-11.63-28.17v27.45c-5-13.73-3.17-27.67-2.65-41.64,7,8.47,6.7,19.52,11.75,28.47C349.7,1026.75,349.17,1017.74,348.38,1008.72Z" transform="translate(44 -5)"/><path class="cls-43" d="M408.58,679.77c2.65-1.51,6.16-.76,8.44-3.23l5.33-.14c12.41,4,24.76,8.3,38.11,7.58a15.55,15.55,0,0,1,7.55,7c-6.13,4.12-11.89-.77-17.87-.87-4.37-.07-8.72-1.6-13.07-2.48C427.76,684.34,417.59,684.17,408.58,679.77Z" transform="translate(44 -5)"/><path class="cls-44" d="M222.93,928.72c7.51,9.07,7.17,12.94-1.86,21.26l-7.29,2.28c-4.64-1.83-5.78-9.16-1.59-12.66a48.91,48.91,0,0,0,8.81-9.15C221.58,929.8,221.8,928.75,222.93,928.72Z" transform="translate(44 -5)"/><path class="cls-45" d="M451.23,1031.41c.17-8.5.85-14.76,3.33-20.71.83-2,1.63-4.09,4.26-4,2.1.08,3.1,1.72,3.66,3.49,3.62,11.43,4.62,23,1.46,34.72-.61,2.28-2.11,4.65-4.87,4.7s-4.43-2.07-5.3-4.35A36.86,36.86,0,0,1,451.23,1031.41Z" transform="translate(44 -5)"/><path class="cls-46" d="M249.31,1047.81c-3.71-3.24-2.6-7.65-3.39-11.59-.42-2-.64-4.25-3.67-4.15s-3,2.23-3.22,4.36a64.07,64.07,0,0,1-2.64,12.88,163.13,163.13,0,0,1,.7-37.16c.29-2.13.43-4.85,2.79-5s3.23,2.43,3.91,4.41C247.84,1023.24,248.23,1035.54,249.31,1047.81Z" transform="translate(44 -5)"/><path class="cls-47" d="M328.58,1049.7c-5.22-5.09-3.74-9.62-4.54-13.56-.44-2.17-.73-4.15-3.65-4.14s-3.1,2-3.32,4.23a61.65,61.65,0,0,1-2.46,13c-1.72-13-.51-25.84.85-38.68.13-1.26,1.56-2.37,2.39-3.55,1.11.92,2.89,1.65,3.22,2.79a176.72,176.72,0,0,1,4.34,17.39C326.65,1033.84,327.34,1040.65,328.58,1049.7Z" transform="translate(44 -5)"/><path class="cls-48" d="M378.62,1015.83c-.79-4.25-4.69-10.75.9-12s9,6.92,7.83,11c-3.17,10.61,1.14,20,2.12,29.91.16,1.56.78,3.64-2.22,5.15-2.36-6.3.6-14-4.83-19.18a6,6,0,0,1-1.51-3.69,106.21,106.21,0,0,0,1.63-17.72c-1.13,2.27.62,5-1.54,6.71A1.93,1.93,0,0,1,378.62,1015.83Z" transform="translate(44 -5)"/><path class="cls-49" d="M273.35,1039.33c0,1.46.26,4.06-.19,4.2-2.36.73-3.72-1.33-4.31-3-2.37-7-4.43-14.08-7.81-20.94v28.91h-1.43v-41.6c7.17,9.25,5.28,21.56,12,30.28C272.73,1037.44,272.83,1038.55,273.35,1039.33Z" transform="translate(44 -5)"/><path class="cls-50" d="M302.72,1032c-5,4.83-2.46,11.62-4.68,19.86-1.89-16-.74-29.47-.9-42.9,0-1.56.32-3.44,2.07-3.47a6.65,6.65,0,0,1,6.86,4.89c1.85,7.63,1.73,15.17-3.5,21.76-4-5.11.94-10.54-1.16-15.72C302.73,1021.59,298.7,1027,302.72,1032Z" transform="translate(44 -5)"/><path class="cls-45" d="M433.08,1047c-4.72,5.68-9,3.71-10.79-2.09-3.26-10.36-5-21.11-1.67-31.89,1.25-4.07,3.52-7.3,9.73-5.5-8.37,4.84-10.82,23.74-5.86,36C426.31,1048,429.24,1047.91,433.08,1047Z" transform="translate(44 -5)"/><path class="cls-51" d="M371.67,1050.05c-10.67-1.25-13.75-7.88-13.87-24.49-.1-13.3,2-17.27,12.36-18.5-11.86,5.13-9.57,13.76-9.25,21.37S360.08,1044.91,371.67,1050.05Z" transform="translate(44 -5)"/><path class="cls-17" d="M549.37,921.46c-1.77.11-3.55.15-5.32.35-2.43.28-2.37,5.91-6,3.19-3.14-2.34-1.94-5.86-1.31-9C542.92,913.22,548.66,911.56,549.37,921.46Z" transform="translate(44 -5)"/><path class="cls-52" d="M406.13,1031.63c-3.25.17-5.65.76-5.68,5.09a35.48,35.48,0,0,1-2.78,12.77c0-10.11-2.21-20.2.89-30.14a1.84,1.84,0,0,1,2.14-.44c2.41,2.27,1.73,6,4.08,8.35C405.72,1028.56,406.62,1029.88,406.13,1031.63Z" transform="translate(44 -5)"/><path class="cls-53" d="M115.63,246.15c-2.83,20-1.22,40.08-1.61,60.13C111.85,286.16,109.86,266.05,115.63,246.15Z" transform="translate(44 -5)"/><path class="cls-54" d="M400.36,1019.34h-1.8c.49-4.22-1.91-11.17,3-11.69,4.38-.46,4.61,6.87,5.53,11,1.47,6.7,3.2,13.45,2.85,20.45.68,1.92-.2,2.33-1.89,1.95l-1.92-9.47-1.78-2.78c-1.31-5.07-1.63-10.32-2.63-15.44-.37-1.17-2,.39-.92,0,.39-.15.49.1.7.56C402.45,1016,402.44,1017.89,400.36,1019.34Z" transform="translate(44 -5)"/><path class="cls-55" d="M443.85,1033.66v16l-2.53.08c-1.16-9.51-1.56-19.06.82-28.73C444.77,1024.94,442,1029.61,443.85,1033.66Z" transform="translate(44 -5)"/><path class="cls-49" d="M273.35,1039.33l-1.74-2.19c-1.7-9.86-.26-19.63,1.74-29.43Z" transform="translate(44 -5)"/><path class="cls-56" d="M227.14,1007.12c-11.19,5.28-7.72,12.46-5.7,20.45-5.29-4.49-6.25-8.91-5.09-14.08C217.31,1009.28,219.52,1006.67,227.14,1007.12Z" transform="translate(44 -5)"/><path class="cls-57" d="M382.39,1025.61l0,5.13c-4,4.22.6,9.79-3.8,16.71v-31.62a7.21,7.21,0,0,0,1.74.06C383.89,1018.53,381.86,1022.34,382.39,1025.61Z" transform="translate(44 -5)"/><path class="cls-46" d="M226.49,1032.33c6.22,9,5,13.78-4.25,17.56C228.29,1045.14,229.16,1039.29,226.49,1032.33Z" transform="translate(44 -5)"/><path class="cls-58" d="M348.38,1008.72c1.74,9,2.74,18-.32,27Q348.21,1022.24,348.38,1008.72Z" transform="translate(44 -5)"/><path class="cls-59" d="M443.85,1033.66c-2.81-3.92-.06-8.59-1.71-12.66.59-4.36-.94-8.93,1.71-14.78Z" transform="translate(44 -5)"/><path class="cls-60" d="M222.93,928.72,221,930.45c-1.67-1.76-6.13.26-5.83-3.34.21-2.48,3.17-3.86,6.05-3.84Z" transform="translate(44 -5)"/><path class="cls-61" d="M505.75,542.41c-3.79-.55-7-2.89-7.59-6.19s2.74-4.58,5.83-5C498.68,535.91,504.11,538.86,505.75,542.41Z" transform="translate(44 -5)"/><path class="cls-62" d="M465.92,453.41c.06,2.61-.16,6.76-2.92,5.92-3.59-1.08-4.72-5.51-4.48-9.57C461.06,450.82,461.46,456.24,465.92,453.41Z" transform="translate(44 -5)"/><path class="cls-14" d="M132,503.72c-.47,6.76,1.92,13.71-1.34,20.29C131.7,517.29,129.29,510.34,132,503.72Z" transform="translate(44 -5)"/><path class="cls-63" d="M408.05,1041.1l1.89-1.95a8.91,8.91,0,0,1,.76,9.78C407.16,1047,408,1043.93,408.05,1041.1Z" transform="translate(44 -5)"/><path class="cls-3" d="M348.11,175.77c19.14,8,35.7,19.12,49.4,35.18,27.7,32.45,33,91.33,6.93,126.39-4.48,2.3-6.75-.95-8.76-3.84a35.13,35.13,0,0,1-6.58-20.17c-.19-17.68-4-22.59-21.15-28.72-8.14-1.38-17-1.42-20.86-10.94-2.78-3.15-5.68-6.19-8.72-9.09-9.28-8.84-15.24-10.19-26.73-4.41-7.27,3.66-12.29,4.27-16.9-4-4.23-7.57-11.56-6-18.43-3.56-2.54,1-5.32,1.9-6.74,4.23-7.45,12.14-19.33,16.28-32.38,18.49-16.46,1.26-25,12.17-30.28,27.17-4.6-3.15-2-7-3.82-9.24-.14-18.28-.33-36.4,6.89-53.92a113.74,113.74,0,0,1,27.46-40.28,103,103,0,0,1,58.75-27.52c9.83-1.2,19.85-.8,29.79-1.12C333.33,172.3,342,168.81,348.11,175.77Z" transform="translate(44 -5)"/><path class="cls-53" d="M177.49,248.4c1.65,3.21,3.94,3.74,7.45,2.7,7.13-2.1,8.29,3.21,6.62,7.59-3,7.92-3.54,16.2-5.12,25-11.83-8.4-23.78-9.46-36.16-2.74,1,3.42-1.77,4.82-3.67,6.51-7,6.19-7.86,13.73-5.17,22.13,5.24,16.36,18.15,24.49,35.15,21.88,5.55-.85,10.15-.12,13.08,5.22a9.32,9.32,0,0,1,.12,5.46c-3.19,6-6,12.42-14.1,13.21-3.32,4.13-3.62,9.45-5.6,14.11-1.59,3.76-2.65,4.15-6.2.85-8.94-8.31-15.62-19.61-28.77-22.74-5.55-1.32-8-5.68-9.63-10.94-4.37-13.88-9.39-27.72-9.06-42.42.24-10.75,2.43-21.45-.38-32.18a4,4,0,0,1,1.3-3.21C128,250,131.86,236,141.7,226.48c2.73-2.66,5.1-3.81,8.56-3.54a5.46,5.46,0,0,1,3.87,3.43c4,9.66,11.21,15.91,20.86,19.58A4.93,4.93,0,0,1,177.49,248.4Z" transform="translate(44 -5)"/><path class="cls-53" d="M348.11,175.77,326,170.43l5.27-.31c0-.54,0-1.07,0-1.61H287.39c-13.27,0-20.65-6.84-20.87-20.31-.11-6.78-.82-13-4.24-19.06-2.79-4.94-1.36-8.42,4.57-10.08s12.21-2.42,18.23-4.48c8.26-2.83,9.62,5.12,11.76,10.43,1.4,3.48.62,8.06,5.8,9,1.94.49,3,2,3.82,3.6,4.61,8.91,12.86,13,21.63,16.42,1,2.28,2.51,3.12,5,2.14,1.87-.73,4.56.05,4.58,1.6.11,9,6.79,9.81,13.13,11.52,1.87.5,4.18,2.26,3.51,4.58C353.41,177,350.24,175.22,348.11,175.77Z" transform="translate(44 -5)"/><path class="cls-64" d="M188.38,337.27c-3.35-4.5-7.81-4.71-12.74-3.38-20.94,5.67-40.39-16.9-37.91-36.23,1.05-8.12,7.68-11.65,12.55-16.68,16.63-5.34,27.73.37,39.06,14.21,2.3,2.81,2.71,5.87,2.75,9.24,0,3.11,1.56,5.15,4.83,5.42,3.51.3,5-2.24,5.44-4.91.64-3.83.52-7.78.73-11.67,2.36,1.54,1,4.57,3.36,7.45,3.76-16.87,13.45-26.55,30.66-27.17,2.27-.88,5.34-.73,3.63,2.17-3,5.06-4.32,12-10.19,14.5-17.59,7.59-24.07,24.19-32.78,39C195.53,333.08,194.31,337.88,188.38,337.27Z" transform="translate(44 -5)"/><path class="cls-53" d="M235.56,179.38c.35,1.6,2.57,3.93.31,4.69-5.56,1.88-5.63,4.5-3.51,9.44,2.3,5.4-1.8,7.06-5.61,4.79-7.35-4.38-11.59-3.57-15.07,4.71-2.54,6.06-6.77,3.62-9.61-.34-3.47-4.84-7.38-8.59-13.72-8.74-2.07,1.16-3.56,1.16-3.63-1.77-2.55-2.58-5.29-4.89-8.94-5.7-7.08-1.58-8.74-4.38-2.35-9.37,6.8-5.31,8.37-13.76,11.72-21,2.18-4.69,4.28-6.36,9.41-8.23,9.2-3.35,12-3.75,12.61,7.61s16.54,23.1,28.39,23.89Z" transform="translate(44 -5)"/><path class="cls-65" d="M478.63,246.48c-6.27,5-11.71,10.9-20.51,12.24-10.92,1.66-19.33-1.3-25.4-9.31-7.9-10.44-5-22.73-.16-29.57,6.59-9.28,15.35-16.13,27.9-15.21,18.81-.34,28,16.68,20.61,33.28C479.85,240.66,478.33,243.31,478.63,246.48Z" transform="translate(44 -5)"/><path class="cls-66" d="M482.4,339.11c-8.38,11.55-28.18,17.47-41,7.05-11.51-9.35-9.09-33.11,5-42.39,11.54-7.62,23.73-9.37,36-1C492.09,314.84,492.06,327,482.4,339.11Z" transform="translate(44 -5)"/><path class="cls-67" d="M184.72,192.16c.8,1.44,2.16,1.72,3.63,1.77,6.45,8.12,14.66,15,14.65,27,0,18.65-6.49,26-25.51,27.5-14.67-2.51-22.29-12.55-27.23-25.46.18-8.29-.65-16.51,6-23.51C164.52,190.83,173.77,188.81,184.72,192.16Z" transform="translate(44 -5)"/><path class="cls-68" d="M235.56,179.38c-2.78-1.68-5.56-3.37-8.36-5-11.94-7.08-17.87-23-13.4-35.94,4.78-13.84,10.27-17.5,25.66-17.1,9.68.24,19.58,8.48,22.64,18.82,6.38,21.64-4.1,38.63-26.54,39.25Z" transform="translate(44 -5)"/><path class="cls-69" d="M328.09,154.06c-14.1.48-20.47-8.89-25.45-20,.61-6.84-.75-13.71,1.11-20.58,3.38-12.53,11.79-18.61,25.17-17.49a22.64,22.64,0,0,1,20.91,21.88c.25,6,0,12,0,18C344.8,144.57,338.8,152.13,328.09,154.06Z" transform="translate(44 -5)"/><path class="cls-70" d="M435.16,152.2c-.13,18.19-9,31.2-23.76,34.77-16,3.87-26.41-6.23-28.57-19.51-2-12.49.61-24.1,12.33-31.7C407.28,124.73,429.09,130.07,435.16,152.2Z" transform="translate(44 -5)"/><path class="cls-71" d="M175.69,355.39c5.3-3.17,8.69-8.26,12.68-12.73,3.17,7.74-3.53,14.13-2.7,23,7.66-3.33,12-9.63,16.23-15.57,2.42-3.39,4.72-6.15,8.76-7.06,9.1-2.06,16.49-7,23.21-13.26,3.32-3.08,6.91-5.89,11.29-7.28,1.9-.6,4.82-2.29,4.89,2-.69,4.09-1,8.31-2.17,12.25-2.23,7.42-7.21,13.76-15.1,12.86-11.88-1.36-19.2,3.2-24.32,13.11-6.83,4.18-12.22,9.62-14.57,17.48-1.62,5.44-5.88,8.92-9.15,13.14-7.85-5.64-12.43-12.27-9.42-22.79C176.66,365.86,175.64,360.47,175.69,355.39Z" transform="translate(44 -5)"/><path class="cls-72" d="M184.74,393.37c5.75-11.28,9.43-23.92,20.75-31.51,1.2-.81,2.21-.21,3,.89-4.8,13.1-11.07,25.73-12.88,39.8-2.5,1.92-1.48,4.74-1.88,7.2C188.09,405.73,189.58,397.82,184.74,393.37Z" transform="translate(44 -5)"/><path class="cls-73" d="M348,272.13c4.15,8.38,12.51,8.78,20.12,10.62,13.19,7.75,14,19.37,12.49,33.28-1,8.89,4.3,17.29,11.92,23.25,9.48,7.43,12.52,21.62,8.3,32.64-4.53,11.83-7,24.28,3.79,34.28,6.79,6.25,7.57,13.12,5.49,21.23-1.11,4.32-.25,9-2.22,13.16q-3.64,3.66-7.3,7.3c-5,8.21-4.74,17.62-2.67,26,2.65,10.69,2.89,19.53-6.42,26.77-7.82.6-7,8.56-10.75,12.62-3.68-3.43-9.58-1.36-13.09-5.26,2.44-9.54-3.1-17.22-6-25.52,3.87-7.08,10.51-11.9,14.2-19.51,5.26-10.81,4.85-20.69.21-31-3.54-7.85-8.13-15.28-6.79-24.53.39-2.71-1.88-5-2.82-7.51-5.11-10.21-5.92-20.71-4.82-32.16,1.5-15.65-3.57-21.5-18.67-26.55-4.85-1.62-9.82-2.84-14.63-4.59-5.09-7-8.4-14.93-12.48-22.47-.62-10.63-4.52-14.77-14.74-15.59-3.37-.27-6.89-.77-8.62-4-2.3-4.24,2.73-4.42,4.26-6.57a28.19,28.19,0,0,0,2.29-3.84c6.4-12.88,14.53-16.2,28.35-11.24a45,45,0,0,0,10.33,2.85C342.89,279.6,344.79,274.1,348,272.13Z" transform="translate(44 -5)"/><path class="cls-74" d="M407.84,440.59c.25-4-1.07-7.58.58-12,4-10.69-3.19-18.66-9.27-26.39-4.81-6.1-6.79-12.19-3.2-19.78,2.42-5.13-.23-12,5.82-16.25,1.77-1.25-6.33-21.91-8.74-23.65-11-8-16.22-18.16-14.47-32.26,1.08-8.75,3.28-19.26-9.88-22.5-.68-.16-6.17-2.65-.61-5,16.19,3.19,23.39,11.6,23.48,27.55.06,11.05,1.35,21.48,12.89,27,.49,11.25,8.67,20.83,7.07,32.54-2.3,3.48-4.82,6.76-6.53,10.69-3.07,7.07-2.88,12.44,3.42,18.33,6.54,6.11,9.39,14.45,4.94,23.59C410.33,428.16,413.69,435.78,407.84,440.59Z" transform="translate(44 -5)"/><path class="cls-75" d="M413.34,422.49c.19-10.19-1-19.73-10.58-26.06-4.26-2.83-4.46-6.64-1.84-10.95,3.28-5.38,1.39-14.23,10.59-15.6,12.6.33,21.39,6.16,24.39,16.19,3.43,11.48-1.87,25.35-12.65,32.24C420.26,420.22,417.15,422.29,413.34,422.49Z" transform="translate(44 -5)"/><path class="cls-76" d="M224.74,529.52c.93-8.43,2.46-16.82,1.44-25.36,8-2.36,21.71,3.55,25.51,11,5.22,5.37,5.3,12.11,5.09,18.94-4.86,9.36-5.22,19.13-2.28,29,1.72,5.79,1.85,11.23-1.08,16.66A23.46,23.46,0,0,0,251,592.11c.6,15.14-2.72,30.09-2,45.24.19,4-.3,7.94-4.37,10.23-14,4.78-27.31,11.24-41.71,14.75l-3.56-.38c-1.07-4.82-1.94-9.69-2.53-14.6.13-1.13.25-2.26.38-3.39a117.31,117.31,0,0,1,11.43-52.26c8.08-17,11.47-34.63,13.45-52.89C222.44,535.53,222.17,532.14,224.74,529.52Z" transform="translate(44 -5)"/><path class="cls-77" d="M244.62,647.58c.6-2.29,1.84-4.62,1.7-6.87-1-16.81,2.73-33.42,1.94-50.21-.06-1.2-.48-2.73.08-3.55,8.59-12.53,1.52-25.7,1.66-38.55.07-5.92,1.05-11.27,5.61-15.45,4.7.63,5.11,4.94,6.07,8a189.12,189.12,0,0,0,22,46.35c1.05,3.82-.94,7-2.21,10.34a18,18,0,0,0,0,14c1.9,4.49,4,8.77,9.57,9.72,6,1,10.4-1.48,14.08-6A14.83,14.83,0,0,0,308,609c3.53-8.68-.88-16.22-3.45-24a9.47,9.47,0,0,1,.14-2.76,8.42,8.42,0,0,1,5.25-6c5.63,3.94,10.65,3.47,15.69-1.44,1.93-1.89,5.37-4.41,7.81-1.24,2.57,3.33-1.21,5.42-3.36,7.09-4.47,3.47-7.74,6.78-2.11,11.9a1.66,1.66,0,0,1,.43,1.69c-3.46,9.6-2.55,19.79-4,29.66Z" transform="translate(44 -5)"/><path class="cls-78" d="M324.43,623.85a40.11,40.11,0,0,1,1.83-28c.73-1.65,1-3.08-.6-3.83-10.17-4.83-2.8-7.66,1-11.34,2-2,5.2-3,6.3-6.86-4.32-.08-7.33,2.6-9.26,4.9-6,7.17-9.77,4.43-13.37-2-1.43-5.89,4.14-8.43,6.17-12.66a86.48,86.48,0,0,1,5.08-8.21c11.06-16.87,19.31-35.14,27.1-53.66,2.73-3.2,5.52-2.36,8.3-.08a57.34,57.34,0,0,1,7.21,7.49c3.8,4.61,11.67,6.3,10.46,14.51-9,25.84-21.92,50-32.56,75.12-1.17,2.77-2.14,5.72-3.82,8.16-4.2,6.12-2.21,9.29,4.47,10.66-.51,1.78-2.35,1.29-3.47,2A48.73,48.73,0,0,1,324.43,623.85Z" transform="translate(44 -5)"/><path class="cls-79" d="M339.27,620.14l3.47-2c5.2.27,10.33.82,14.91,3.64a424.17,424.17,0,0,0,39.55,43.58,11.21,11.21,0,0,1,1.34,7.58c-3.09,2.36-5.12.58-7-1.81h0a105.82,105.82,0,0,1-18-18.12C362.93,641.2,351,630.74,339.27,620.14Z" transform="translate(44 -5)"/><path class="cls-80" d="M373.58,653c6.47,5.56,12.87,11.19,18,18.12-8.91-2.3-12.21-10.86-18.23-16.38Q373.43,653.84,373.58,653Z" transform="translate(44 -5)"/><path class="cls-81" d="M397.2,665.32c-9-1-11.74-9.7-17.36-14.69-8.68-7.7-15.52-17.44-23.47-26-2.82-3,.21-2.24,1.28-2.89,5.82.54,10.13,4.74,15.5,6.37a74,74,0,0,1,20,21.3C395.35,654.48,397.47,659.6,397.2,665.32Z" transform="translate(44 -5)"/><path class="cls-82" d="M448.64,598.87c-.63,6.75,4.85,8.45,8.69,10.65,1.46.84,3.6-.13,2.13,2.75-1.86,3.66,1.36,10.51-3.21,11.15s-9.76-2.88-14.59-4.79c-2.24-.88-.66-2.36-.12-3.6Q445.1,607,448.64,598.87Z" transform="translate(44 -5)"/><path class="cls-83" d="M460.46,684c-14.12,4.6-26.36-.26-38.11-7.58C436.22,673.06,448.91,675.65,460.46,684Z" transform="translate(44 -5)"/><path class="cls-84" d="M404.24,616.56c-.64.55-1.26,1.14-1.93,1.65-2.5,1.9-1.16,8.57-6.35,6.42-3.25-1.34-8.74-1.76-9.27-5.89-.6-4.8,2.26-10.18,6.61-11.67,2.65-.9,3.9-3.65,6.72-4.06,1.51,4.54-3.32,7.09-2.62,11.48,2.3.26,8.21-7.91,6.7,2.22Z" transform="translate(44 -5)"/><path class="cls-85" d="M460.53,582.38c1.81-.65,3.91-3.5,5.43-1.33,4.68,6.65,7.83,1.16,11.56-1.25,2.14,3.39-3.94,6.28-.29,9.39-.22,2.58-1.22,4.62-3.91,5.44-5,9.86-7.76,1.43-11.2-1.41-1.8.54.41-2-2.36-2.63C454.88,589.4,458.63,585.16,460.53,582.38Z" transform="translate(44 -5)"/><path class="cls-86" d="M376.6,614.91c-6.16-4.17-6.64-9.09-2-14.71,5.61-4.77,7.91,4.38,12.71,3-4.1,2.87-2.13,8.27-4.84,11.67C380.67,617.18,378.57,617.48,376.6,614.91Z" transform="translate(44 -5)"/><path class="cls-87" d="M458.77,645.51c5.07-5.8,9.33.09,13.93,1-2,4.33-2.07,9.67-5.64,13.07-1.79,1.71-2.95-.38-3-2.48,0-2.43,5.44-6.39-1.27-6.91-4.76-.37-2.56,4.49-2.88,7.3-4.82-1.55-2.45-5.32-3.5-7.77A4.37,4.37,0,0,1,458.77,645.51Z" transform="translate(44 -5)"/><path class="cls-88" d="M417.81,571c-6.46,3.25,1-11.12-7.53-3.5-1.87-2.75.66-4.58.86-6.74.8-9.09,5.71-5.06,10.17-3.43,2,.72,3.06,1.72,3.06,3.72s-1,4.2-2.74,4C414.84,564.2,418.37,569.46,417.81,571Z" transform="translate(44 -5)"/><path class="cls-89" d="M436.94,643.81c-2,1.19-4,2.52-6.3.36s-.22-3.82.49-5.52c2-4.73,4.23-9.38,7.33-16.18.86,6.4,1.4,10.46,1.94,14.52C441.41,640.36,439.85,642.43,436.94,643.81Z" transform="translate(44 -5)"/><path class="cls-9" d="M464.32,560.55c0,.57,0,1.13,0,1.7-12.13,4.06-11.27-6.56-14.36-12.71l7.95,5.7c2-2.62-.65-6.23,2.83-8.68,2.44,2.55,1.84,5.39.78,8.1C460.26,557.79,460.5,560,464.32,560.55Z" transform="translate(44 -5)"/><path class="cls-90" d="M458.77,645.51c-.1,1.77-.57,3.34-2.32,4.19-2,1.15-.44,6.6-5.75,4-4.75-2.32-1.34-4.54-.8-6.85.4-1.69,1-3.32,1.55-5l-.14.16c2.13-.44,1.34-5.14,5.08-3.36C459.64,640.2,459.07,642.86,458.77,645.51Z" transform="translate(44 -5)"/><path class="cls-91" d="M418.68,615c1.94,8.1-8.62,9.23-8.56,16.14a3.36,3.36,0,0,1-2.19.32,3,3,0,0,1-1.45-3.84C408.55,621.51,411.56,616.29,418.68,615Z" transform="translate(44 -5)"/><path class="cls-92" d="M437,568.57c2.87-1.34,6.3-1.41,9.46-3.54-2.57,5.14-5,10.34-7.77,15.39-1.94,3.56-4.16,2.22-6.2-.11C433.48,576.19,433.59,571.74,437,568.57Z" transform="translate(44 -5)"/><path class="cls-93" d="M411.89,586.61c-2,3.46-2.55,8.55-6.9,11-.72.41-4.2-.91-4.07-3.78.26-5.67,8.12-5.5,8.55-11.06C411.43,583,411.75,584.39,411.89,586.61Z" transform="translate(44 -5)"/><path class="cls-94" d="M480.63,589.3c1.67-.12,3.05.22,3.48,2.12,3.55,3.71-1,8.51,1.65,12.34-4.11,4.68-5.63,1.18-7.16-2.27C475,596.71,476.92,592.86,480.63,589.3Z" transform="translate(44 -5)"/><path class="cls-95" d="M420.59,589.38c4.15-.22,7.21,1.58,4.05,5.4-2.56,3.1-.11,10.66-7.77,9.39C413.19,598,418.77,594.16,420.59,589.38Z" transform="translate(44 -5)"/><path class="cls-96" d="M429.77,569.39c-4,.61-3.22,5.15-5.57,7.22-1.63-2.73.76-15,3.08-15.91a3,3,0,0,1,2.54.24c3,2.42-.27,4.94,0,7.44C429.78,568.72,429.77,569.06,429.77,569.39Z" transform="translate(44 -5)"/><path class="cls-97" d="M460.53,582.38c.35,2.7-2.88,4.7-1.21,8.21l4.1-6.35c1.81,3.71-1.94,6-1.3,9-3.76,2.5-6.93,1.54-6.69-2.89.19-3.42-.47-8.45,4.93-9.72Z" transform="translate(44 -5)"/><path class="cls-98" d="M444.13,638.51c2.11-.4,2.81-4.17,5.65-2.6,2.5,1.38,1.8,3.88,1.53,6.12l.14-.16c-3.68,1.72-9.16,2-5.74,9.55-5.22-2.74-3-6.37-3.39-9.25C441.29,640.15,442.49,639.22,444.13,638.51Z" transform="translate(44 -5)"/><path class="cls-99" d="M480.63,589.3q-1,6.11-2,12.19c-7.48,2.12-4.92-3.49-5.28-6.86,1.19-1.9,1.66-4.31,3.91-5.44Z" transform="translate(44 -5)"/><path class="cls-100" d="M437,568.57c-.43,4.32-.86,8.65-4.51,11.74l-2.85-1.78c0-5.47,3.64-9.55,5.43-14.34.45-1.05.86-3,1.34-3,2.5-.09,1.53,1.61,1.23,3S437.23,567.1,437,568.57Z" transform="translate(44 -5)"/><path class="cls-101" d="M420.59,589.38c.69,5.41-4.37,9.38-3.72,14.79C411.07,599.49,412.15,595.21,420.59,589.38Z" transform="translate(44 -5)"/><path class="cls-102" d="M444.13,638.51c-.61,1.22-1.21,2.44-1.81,3.66-1.85.43-1.44,2.34-2.27,3.42-.67.87-2,2.33-2.35,2.15-1.65-.84-.58-2.56-.76-3.93,1.16-2.27,2.31-4.55,3.46-6.82l3.73-4.49Z" transform="translate(44 -5)"/><path class="cls-103" d="M485.76,603.76c-3.61-3.71-.67-8.28-1.65-12.34,5.58-.26,6.32.3,4.21,3.13C486.08,597.54,486.19,600.59,485.76,603.76Z" transform="translate(44 -5)"/><path class="cls-104" d="M435.09,564.19c.7,5.73-4,9.43-5.43,14.34-4.59-3.1,2.67-6.06.11-9.14a.65.65,0,0,0,0-1C433.21,569.08,432.84,565,435.09,564.19Z" transform="translate(44 -5)"/><path class="cls-105" d="M404.1,616.71c2.09.2,1.63-3.66,3.86-2.69,3,1.29.5,2.76-.25,4.08-1.88,3.29-3.78,6.56-6.35,11-1.76-5.93,3.59-8.47,2.88-12.55Z" transform="translate(44 -5)"/><path class="cls-106" d="M317.39,786c-3.67-3.21-3.92-8-5.52-12.1-1.1-2.82-2-5.62-4.39-7.74-7.75-6.88-12.1-14.72-7.24-25.32,1.63-3.56-1.29-5.75-3.55-7.55-4.87-3.87-5.31-7.72-2.28-13.26,12.73-23.22,31.56-38.66,57-46,16.1-4.68,30.07,4.51,30.94,21.42a350.1,350.1,0,0,1-4.09,72.85c-1.82,11.42-5.22,23.6-15,32.27-2.31,2.06-3.35,3.11-5.55.51-5.24-6.21-12.48-7.42-19.71-6.24-6,1-8.17-1.5-9.93-6.35C324.68,779,324.56,779,317.39,786Z" transform="translate(44 -5)"/><path class="cls-107" d="M235.37,906.8q-3.62-28.06-7.24-56.13c.29-5.39-6.13-9.95-2-15.82,13.18-4.76,26.84-1.21,40.23-2.37,2-2.23,1.16-6.08,4.36-7.62a2,2,0,0,1,1.83.89c4.58-.63,7.46-3.86,10.37-6.94,2.23-2.37,3.67-5.4,5.93-7.8a7.89,7.89,0,0,1,3.58-2c2.44-.42,4.77-.29,6.76,1.41a3.36,3.36,0,0,1-.3,3.44c-10.75,11.63-19.58,25.72-36,30.37-7.8,2.2-13.44,8-20.7,11-2.46,1-3.52,3.37-3.73,5.84-1,12.68-1.1,25.27,2.55,37.68,1.16,4,3.13,3.37,6.09,2.59,28-7.38,56-14.53,84.64-18.93a98,98,0,0,0,11.42-2.79c6.2-1.71,9.79-5.65,10.75-12,.85-5.67,2.19-11.27,2.5-17,1.31-24.27-13.37-38.65-37.62-36.88-5.22.38-10.28.31-14.33-3.73-1.15-5.92,3.06-6.73,7-6.23a79.19,79.19,0,0,0,11.63.13c-4.12-1.37-9.86,3.06-12.61-3.26a6.81,6.81,0,0,1,.32-5.26l.95-1a60.09,60.09,0,0,0,24.39,5.37c4.5,0,8.11,1.91,11.87,3.76,6,8.07,12.46,15.57,21.79,20h0l.33,5.73L370,829c-7.38,17.19-6,34.48,0,51.58,1.79,5.12.18,8.18-3.65,10.75-7,4.68-15.19,5.28-22.67,3.57A66.68,66.68,0,0,0,311.5,896c-18.64,5.06-38.54,7.5-54.64,20.23C249.93,921.65,240.27,916.9,235.37,906.8Z" transform="translate(44 -5)"/><path class="cls-108" d="M271.78,825.24c-2.93,1.57-.12,7.4-5.38,7.24-5.55-3.51-11.69-1.39-17.53-1.66-6.32-.28-9-2.48-7.08-9,1.66-5.6.35-11.23.21-16.88-.42-16.7-.85-33.69,6.71-49.2,3.74-7.67,11.12-10,19.5-8.52a19.47,19.47,0,0,1,7.32,7.37,9.44,9.44,0,0,1,2.23,4.42c1.48,14.82-.33,29.51-1.87,44.21C273.37,810.36,276.64,818.56,271.78,825.24Z" transform="translate(44 -5)"/><path class="cls-109" d="M275.54,758.15c0-1.18,0-2.35,0-3.53,14.36-.94,28.09,7.4,29.11,17.94l-1.13.56a6.76,6.76,0,0,1-5.25-3C292.9,761.81,284.46,759.57,275.54,758.15Z" transform="translate(44 -5)"/><path class="cls-21" d="M369.79,823.49c-5.57,2.39-7.92-3-11-5.28A30,30,0,0,1,348,803.52Z" transform="translate(44 -5)"/><path class="cls-109" d="M304.64,772.56c1.49,7.56,6.71,13.91,7.1,21.83l0,0c-3,3.26-6.35,4.82-10.62,2.44,2.15-7.87-.87-16.43,3.2-24.05Z" transform="translate(44 -5)"/><path class="cls-80" d="M391.55,671.09c2.22,1,4.41,2.17,7,1.81,3.06,4.41,7.62,8.19,6,14.53C399.54,682.51,393.89,678.12,391.55,671.09Z" transform="translate(44 -5)"/><path class="cls-110" d="M226.17,834.85c.5,5.29,2.67,10.38,2,15.82-1.64-.67-1.86-6.84-5.19-1.11s-8.19,10.35-7.42,17.6c-3.37-6.28-2.46-13.46-4.25-20.07C210.57,836.11,219.73,837.14,226.17,834.85Z" transform="translate(44 -5)"/><path class="cls-3" d="M224.74,529.52c-.59,22.34-4,43.75-14.44,64.18-7.91,15.46-8.34,33.58-13.1,50.26-5.69-19.88-5.33-40.27-4.37-60.57s3.1-40.64,4.79-60.95c.07-.76.83-1.46,1.27-2.19C206.49,526.18,215.44,528.33,224.74,529.52Z" transform="translate(44 -5)"/><path class="cls-16" d="M196.82,647.35c2.48,4.59,2.54,9.59,2.53,14.6-3.62-2-.24-7-3.74-9C197.2,651.31,191.44,648.12,196.82,647.35Z" transform="translate(44 -5)"/><path class="cls-111" d="M317.17,313.69c4.89,6.61,9.59,13.31,10.92,21.71,6.54,3.64,13.71,6,19.41,11.31a40,40,0,0,1,13.18,31.46c-.14,5.53,1.34,10.65,2.18,16,1.2,7.54.05,15.07-2,22.37-2,7.1-6.84,9.56-13.88,7.34a26.33,26.33,0,0,1-8.52-5c-9.65-7.9-20.64-8.84-31.45-4.11-12.73,5.55-20.23,16.06-21.61,30-.71,7.17-.3,14.48-2.15,21.54-.77,3-.9,7.05-6,5.21l-3.62,0c-11-3.82-16.17-10.91-14-19.37.5-.75,1-1.81.48-2.44-11.62-13.81-12.7-30.35-12.43-47.27.06-3.87.12-7.75-.11-11.62-.05-1.69-1-3-1.73-4.49.23-4.48-3.47-8-3-12.56.33-19.22,9-35.83,17.55-52.14,3.36-6.4,12.82-7.12,18.94-11.39,2.73-4.38,7-4.91,10.88-2.85,7.61,4,15.38,5.93,23.93,4.72C315.26,311.93,316.29,312.86,317.17,313.69Z" transform="translate(44 -5)"/><path class="cls-112" d="M317.17,313.69c-9.85,2.31-19.22,2.13-27.7-4.54-3.39-2.67-6.77.65-10.18,1.08-12.27-.41-23.6,1.13-29.24,14.3-5.24-2.62-8.25,1.92-11.16,4.32-9,7.45-18.1,14-29.73,17.48-6.14,1.85-7.85,10.89-13.66,14.95-2.15,1.51-3.52,4.1-5.58,5.8s-4.79,2.84-7.32.51-.19-4.13.53-6.33c2-6.11,3.53-12.39,5.24-18.6,0-1.8,0-3.59,0-5.39,8.17-3.33,9.17-12.37,12.68-18.58,4.08-7.23,9.46-13.63,13.21-21.05,2.43-4.79,8.43-5.58,12.81-7.44,7.49-3.17,6.92-11.63,12.45-15.64l-2.42-1c10.17-3.16,21.65-4.4,27.91-14.35,2.77-4.39,5.83-7.23,10.43-8.89,2.33,2.79,4.82,5.16,8.56,6.22,6.81,1.92,12.85,5.09,15.13,13.59,7.95-8.16,15.71-6.95,23.67-2.35a19.74,19.74,0,0,0,10.24,3c4.31-.05,6.9,1.72,5.89,6.58-8.3,2.62-14.7-4.63-23.13-4.1-8.06.5-12.72,3.23-14.16,10.42-1.06,5.26-3,8.57-9,8.87,2.4,3.59,5.68,4,8.35,4,3.46,0,7.49-2.66,10.26.13,3.71,3.73,4.17,9.81,8.22,13.64C319.63,310.47,318,312.53,317.17,313.69Z" transform="translate(44 -5)"/><path class="cls-113" d="M277.27,471.49c6.2-5.62,5.54-13.34,5.23-20.35-.42-9.57,2.19-17.56,7.53-25.37,12.4-18.15,33.11-21.73,50.44-8.3,2.14,1.66,4.36,3.53,6.85,4.33,4.95,1.58,9.93,1.67,11.31-5,4.08-19.64,2-39-4.52-57.66-3.05-8.69-11-14.17-19.37-18.1-2.9-1.37-5.23-2.85-6.65-5.68,9.75.43,18.8,3.77,26.94,8.55,11.22,6.6,10.11,18.39,9,29-.75,7.23-3,13.89,3.2,20,1.44,1.43.6,5.16.81,7.83,1.1,3,.67,6-.09,8.91-2.49,9.45-.17,18,5.13,25.72a15.56,15.56,0,0,1,2.22,14.44c-3.36,11.19-8.17,21.28-18.23,28.24-3.89,2.69-7.84,5.7-9.61,10.51a11.46,11.46,0,0,1-3.18,4.59c-16.91,10.3-36.15,13.46-55,17.86-2.34.55-4.78.47-6.59-1.62,2.08-2.7,6.49-1.62,8.44-5.61-7.52-5.14-17.46-5.42-24.59-11.4-.9-.76-2.28-1-3.13-1.75-2.57-2.36-7-4.14-6.48-7.91.47-3.46,5.27-1.66,7.76-3.23C268.94,477,276.16,479,277.27,471.49Z" transform="translate(44 -5)"/><path class="cls-114" d="M282.73,509.51a216.15,216.15,0,0,0,61.69-18.12c6.94,1.21,7.77,5.48,5.62,11.24a221,221,0,0,1-27.1,54.68c-3.8-6.22-2.54-12.25,1.55-17.52,4.61-5.94,6.81-12.72,8.44-19.8s-1.69-11-8.62-9.28c-8.71,2.21-17.52,4.64-25.13,9.9-6,4.13-9.27,9.88-8.55,17,1.63,15.93,4,31.76,15.16,44.5a3,3,0,0,1-.06,1.58c-4,3.91-9.26-.6-13.48,2-3.28.76-6.08,3.88-9.89,2-13.25-14.8-18-33.75-25.1-51.55-.44-1.09-1.1-2.1-1.65-3.15q-2-8.9-3.92-17.79c.07-5.84,5.84-5.79,8.07-5C267.7,512.76,275.11,510,282.73,509.51Z" transform="translate(44 -5)"/><path class="cls-113" d="M261,453.34c-3.19,4.27.69,6.62,2.83,9,3,3.33,6.55,6.12,9.87,9.15-6,3.19-12.22,3.29-18.85,2-3.6-.71-5-2.57-6.31-5.43a205.25,205.25,0,0,1-17.63-61.67c-.79-6.34-1.38-10-8-10.57,7.62-4,16.45-4.91,23.8-9.54,1.44,0,2.74.32,3.41,1.79-3.48,17.57-4.24,34.94,2.23,52.15C254.22,445.4,260.65,447.29,261,453.34Z" transform="translate(44 -5)"/><path class="cls-115" d="M246.62,386.27c-5.87,8.33-14.62,9.48-23.8,9.54-3.23-1.88-8-2.39-7.08-7.95,6.67.49,11.93-3.63,17.91-5.43,1.82-1.08,2.13-2.95,2-4.71-.59-6.87,3.27-5.4,7.17-4C244.86,377.69,249.89,380.71,246.62,386.27Z" transform="translate(44 -5)"/><path class="cls-116" d="M233.65,382.43c-4.87,5.44-10.1,9.7-17.91,5.43l-3.66-5.22c3.91-3.44,13-1.78,10.91-11.11C233.51,368.32,234.28,369.11,233.65,382.43Z" transform="translate(44 -5)"/><path class="cls-117" d="M223,371.53c2.32.32,4.21,1.16,3.26,4-1.05,3.12-2.36,6.33-6.17,6.87a68.7,68.7,0,0,1-8,.26c-2.57-2.94-3.21-5.54,1.24-7.29Z" transform="translate(44 -5)"/><path class="cls-118" d="M374.65,524.16c-1.12-6.85-8-8.45-11.76-12.85a10,10,0,0,1,5.13-3.49c3.89,2.59,11.13-2.63,12.68,5.43C380.73,518,376.06,520.19,374.65,524.16Z" transform="translate(44 -5)"/><path class="cls-119" d="M371.76,597c-5.06,3.32-5.89,10.64-13.85,14.23,3.5-5.85,6-10,7-14.83.34-1.55,1.64-4,2.67-4.09,2.61-.23,4.14,1.76,4.36,4.48Z" transform="translate(44 -5)"/><path class="cls-120" d="M389.75,970.43c-3.74-3-8-2.55-11.79-.78-9.35,4.33-18.24,5.51-26.87-4,.2,8,1,15.44-8.47,7.72a2.5,2.5,0,0,0-3.93.48c-1.12,1.71.17,2.76,1.54,3.48,2.3,1.2,4.66,2.27,7.39,3.59-5.94,2-11.54-.55-13.85-4.81-2.58-4.75-6.88-4.29-11.16-2.11-3.71-4-5.56-7.92.74-11.28a9.5,9.5,0,0,0,9.14,1.72c-2.84.17-5.83,1.17-8.19-1.41-1.79-3.21.51-4.34,2.81-5.29,3.06-1.27,6.5-1.84,9.09-3.95,3.91-3.18,6.34-2.75,9.54,1.44,5.79,7.6,14.75,5.81,22.64,5.48,3.89-.16,4.79-5.46,4.74-8.37-.05-3.09.21-4.58,3.1-5.09a4.94,4.94,0,0,1,5.8,3.22,50.39,50.39,0,0,0,3.46,7.27c1.78-6,7.24-7.87,12.06-9.94,4.3-1.85,6.21-.23,7.24,5.41.18,1,.27,1.33,1,1.53,7.05,1.79,13.05,8.31,21.31,4.7a4.67,4.67,0,0,1,2.66-.41c12.09,2.6,23.92,3.32,36-1,4.61-1.64,7.67,3.87,11,6.81l0,.07c.26,5.42-.29,9.38-7.46,5.87-2.49-1.22-5,2.31-7.47,2.3-10.87,0-21.69.54-32.41-3.14-5-1.71-10.58,2.3-16.45,1.66C405.35,970.85,397.36,974.62,389.75,970.43Z" transform="translate(44 -5)"/><path class="cls-121" d="M324.45,963.16c-6.06,2.71-2.14,7.1-1.84,10.88-3.62.91-7.25-2-10.86,0-2.06.78-3.14-.82-2.47-2,4.41-8-.75-7.79-6.2-7.58a3.46,3.46,0,0,1-2.22-1.29h0c-10.25-7.67-10.67-12.08-2.56-26.86-4.74-.64-5.27-.84-6.31,1.89-1.86,4.87-4.65,4.8-8.56,2.45,2.24,2.44,7.14,1.92,7.11,6.14,0,3.81-4,4-6.5,5.34-10.59,5.86-12.43,5.42-19.34-4.45-1.45-2.07-4.09-2.51-5.58-4.45a9.81,9.81,0,0,1-7.26-3.63c2.15-3.17,8.62-1,8.56-6.89.47-.78,1-1.69,1.76-2,16.93-6.41,33.48-13.83,50.8-19.21a11.92,11.92,0,0,0,10,1c6.2-1.91,12.83-3.56,19.45-.95,1.12.44,2.52.91,3.52.33,10.65-6.2,22-3.75,33.25-2.93,2.73.2,5.27-1.12,7.76-2.16,4.75-2,8.45-.61,10.38,3.92.81,1.93,1.28,2,2.79,1.3,5,6.91,2.68,14.12,1.87,20.3,5.87-5.47,7-16,15.09-21.59a10.11,10.11,0,0,1,1.44-.26c3.63.32,7.24-1.68,10.84,2s6.7-1.25,9-3.11c4.2-3.32,6.37-6.28,10.72.55,2.64,4.15,9.19,4.28,14.84,3.58,7.26-.91,14.81-5.72,21.86,1.34,2.2,2.21,4.49-.37,6.06-2.13,4.86-5.47,8.87-5.23,12.14,1.52-.75,1,4.91,4.77-1.36,3.28-3-.7-2.84,1.62-3.29,3-.66,2,1.05,2.58,2.6,2.67,4,.23,9,3.33,10.55-3.69a2.73,2.73,0,0,1,1.76-1.44c1.15-.3,15,12.85,15,14.3a32.21,32.21,0,0,1-.46,4.31c-4,.24-2.79-3.59-4.58-4.93-1.64-1.22-2.91-3.53-5.31-2.08-2,1.21-1.75,4.06-2.46,5.46-3,5.9.28,10.55,1.66,16-6.51.53-10.37-2.26-13.21-7.45-1.25-2.28-3.72-5.35-6.38-3.44-3.43,2.48,1.6,4.21,1.83,6.59h0c-2.45.1-4.47-.89-6.7-1.88-3.68-1.63-10.68-7.32-7.53,4.11.71,2.56-.4,3.26-2.58,3.12a110.16,110.16,0,0,1-11.36-1c-1.43-.24-2.86-3-4.06-.18-.86,2.05-.09,4.87,2.56,4.57,8.74-1,7,4.33,6,9.34-9.36-6.54-18.24-4.77-27.75.33-2.48,1.32-7.27-1.57-11-2.66-1.66-.48-3.69-2.28-4.79-1.78-11.24,5.08-20.63-.28-30.28-4.75-1.25-.58-2.91-.28-4.6-.41.47-4.32,4.35-2.65,6.29-4.06-1.44-2.07-3.42-3.18-5.49-2.59-4,1.14-6.41,5.4-10.82,6-.24,0-.43.41-.66.59-2.78,2.14,8.29,4,.45,5.24-4.55.74-7.25-4.52-8.07-9-.43-2.37-1.25-3.19-3.31-3-1.52.11-2.33.5-2.41,2.71-.15,4.1-.9,11.51-2.18,11.68a51.7,51.7,0,0,1-19.4-.93c-3.67-.95-10.27-.8-9.79-8,0-.41-1.34-.92-2.06-1.38-3.37,6.86-12.88,3.83-16.52,10.25Z" transform="translate(44 -5)"/><path class="cls-122" d="M313.68,912.79l-53.28,21c-3,4.84-8.73,3.31-12.85,5.52l-5.11.37c-5.33-7.8-4.64-17.18-6.64-25.84-.57-2.49-1-4.59-3.21-6l2.78-1c3,4.91,8.59,6.15,12.95,9.13,3.15,2.15,5.76.15,8.08-1.83,9.58-8.14,20.93-12,33-14.75,13-2.93,25.67-6.9,39.29-8.07,9.39-.81,17.85,4,27.25,1.47A39.34,39.34,0,0,0,367.32,888c2-1.26,3.45-4.26,1.77-5.26-10.49-6.23-3.9-16.67-5.78-24.77-2.21-9.52-2.95-21.14,6.73-29,1.26,9.12,1.11,18.39,3.43,27.4,2,7.84,4.37,15.41,10.41,21.24.71,4.14-1.9,6.8-4.54,9.14-7.1,6.3-14.08,12.8-22.71,17.11C343.07,910.48,328.91,914.19,313.68,912.79Z" transform="translate(44 -5)"/><path class="cls-120" d="M259.12,943.22c4.53.13,8.57-.61,9.06,6.74.26,3.93,6.64,5.77,10.79,2.77a33.63,33.63,0,0,1,10.24-5.09c-1.23-4.07-4.79-3.7-7.26-5s-3.87-3.8-2-5.93c3.1-3.45,2.41,1.55,3.8,2.23,2.63,1.28,5.54,4.29,6.13-1.61.24-2.43.13-4.91,2.88-6.11,2.19,5.18,6.77.4,9.67,2.36.51.34.46,1.51.67,2.29-6.75.8-3.29,8.47-7.47,11.08-2.52,1.58-2.95,5.07-1.13,6.19,4,2.47,6.65,5.15,6.32,10-2.67-.29-5.33-.73-8-.82-1.36,0-3.29.07-4,.91-4.33,5.17-4.28,5.33-10.35,2.36-2.4-1.17-3.84-1.5-6,1-5.45,6.38-6.57,1.31-7.13-3.32-.22-1.9-.31-4-2.07-4.52-2.63-.76-2.11,2.17-3,3.48-1.07,1.6-2.44,3-4.41,2.25s-.5-2.54-.55-3.88C255.18,954.52,251.75,947.71,259.12,943.22Z" transform="translate(44 -5)"/><path class="cls-120" d="M300.86,963.16c1.49-.16,3.15.05,4.42-.56,3.47-1.67,6.8-1.31,9,1.52,2.73,3.58-1.05,5-3.14,7-1.05,1-.48,2.15.64,2.94-6.7,2-10-7.68-17.48-3C295.24,965.52,301.42,967.77,300.86,963.16Z" transform="translate(44 -5)"/><path class="cls-120" d="M247.55,939.29a26.51,26.51,0,0,1,12.85-5.52c3.25,2.89,3,5-1.49,5.72a47.32,47.32,0,0,1-7.05.1Z" transform="translate(44 -5)"/><path class="cls-123" d="M471.58,694.47c4.05,2.56,7.92,4,10.74-1.61l2.17-1.7c.92,0,2.19.24,2.19,1,.09,10.68,5.35,19.68,9.21,29.15.32.77-.39,1.66-1,2.3-5.43,3.09-11.73,1.47-17.49,3.13-1.67.48-4.66-1.37-6.17-3C466.27,718.52,466.71,701.17,471.58,694.47Z" transform="translate(44 -5)"/><path class="cls-124" d="M494.86,723.62c-5.24-10.25-10.44-20.51-10.37-32.46l1.87-3.59,5,3.47c2.87,2.54,5.94,4.91,8.59,7.68,8.53,8.85,8,17.23-1.37,24.94Z" transform="translate(44 -5)"/><path class="cls-121" d="M500.42,946.84c2.86,2.69,1.81,5.89,1.18,10.29-2.4-4.22-6.75-1.92-9.8-4.64,2.46-3.09,7.63-1.38,8.63-5.65Z" transform="translate(44 -5)"/><path class="cls-125" d="M357.19,901.73c9.77-7.07,19.59-14.09,26.69-24.13l5.66,5.63c5.22,2.51,7.78,7.07,9.49,12.31.85,6.32-1.78,8.91-8.27,9.67-9.53,1.12-19-.37-28.47.18C360.11,905.51,357.36,905.07,357.19,901.73Z" transform="translate(44 -5)"/><path class="cls-126" d="M396.93,894.49q-3.69-5.64-7.39-11.26l1.81-1.81c6.21,2.53,10.15,6.46,13.12,13.07,2.68,5.94,9.94,9.54,12.62,16.26-4.51,8.65-8.36,17.72-15.94,25.53-2.42-8.56.82-16.79-2-24.42-2.39-2.29-2.57-5-1.78-8.07S398.78,897.51,396.93,894.49Z" transform="translate(44 -5)"/><path class="cls-127" d="M458.26,1008c5.47,12.87,4.09,23.57,3.54,34.15-.08,1.56-.83,3.82-2.91,4-2.25.15-2.92-2.23-3.17-3.74A68.25,68.25,0,0,1,458.26,1008Z" transform="translate(44 -5)"/><path class="cls-128" d="M239.11,1010.44c4.13,5.76,3.87,10.46,5.21,14.61.66,2-.42,3.4-2.79,3.44-2.11,0-2.39-1.36-2.41-2.92C239.08,1021.36,239.11,1017.15,239.11,1010.44Z" transform="translate(44 -5)"/><path class="cls-129" d="M319.28,1012.24c1.08,4.22,2.26,8.41,3.2,12.66.42,1.93-.16,3.48-2.62,3.66-2.73.19-2.73-1.61-2.74-3.46,0-4.18,0-8.36,0-12.55Z" transform="translate(44 -5)"/><path class="cls-130" d="M382.39,1025.61c-3.3-2.69-.84-6.59-2-9.72.23-2.63.46-5.26.77-8.78C385.6,1013.6,385.27,1019.52,382.39,1025.61Z" transform="translate(44 -5)"/><path class="cls-129" d="M302.72,1032c-1.54-.41-3.65.2-3.59-2.67.13-6.79,0-13.58,0-21.07,5.79,4.07,5.79,4.07,3.4,23.88Z" transform="translate(44 -5)"/><path class="cls-131" d="M400.36,1019.34c.25-2.52.5-5.05.76-7.57,2.36,5.57,7.19,10.61,3.23,17.08C397.37,1028.06,402.1,1022.34,400.36,1019.34Z" transform="translate(44 -5)"/><path class="cls-132" d="M338.94,277.38c-.73-1.3-1.61-3.8-2.18-3.73-9.53,1.15-16.28-6.36-24.88-7.76-3.39-.55-6.11.85-8.38,3.86-3,4-6,6.49-7.5-1.56-1.37-7.4-8.59-8.69-14.46-10.09-4.78-1.15-6.75-3.08-6.09-7.8,14.91-3.58,16-3.27,23.77,9.38,2.61,4.24,4.94,1.57,7.37.26,8.08-4.37,16.18-8.13,25.48-3.33,6.89,3.56,11.58,9.32,15.88,15.52.15,3.95-2.5,6.41-5.3,8.15C341,281.3,339.79,278.93,338.94,277.38Z" transform="translate(44 -5)"/><path class="cls-133" d="M170.44,291.89c7.4.11,14.42,8.07,14,15.9-.38,7.61-8.36,15.27-15.52,14.9-5-.26-16.46-11.83-16.33-16.47C152.77,300.65,163.79,291.78,170.44,291.89Z" transform="translate(44 -5)"/><path class="cls-134" d="M469.57,230.28c-.11,7.88-8,16.4-15,16.24-7.21-.17-12.21-5.12-12-11.87.18-5.65,10.94-16.22,16.36-16C466.37,219,469.64,223.11,469.57,230.28Z" transform="translate(44 -5)"/><path class="cls-135" d="M476.82,325c-.46,8.31-8.83,17.95-15.3,17.61-7.66-.39-12.23-4.94-11.87-11.81.69-13.17,6.56-21.5,14.58-20.67A14.4,14.4,0,0,1,476.82,325Z" transform="translate(44 -5)"/><path class="cls-136" d="M192,221.53c.14,6-6.51,13.79-11.87,13.89-9.12.17-18.52-8.37-18.92-17.18-.36-7.69,6.56-17,12.73-17.07C182.5,201,191.73,211.43,192,221.53Z" transform="translate(44 -5)"/><path class="cls-137" d="M221,156c.27-9.29,11.35-21.48,19-21,5,.32,12,12,11.78,19.56-.32,9.6-7.3,16.11-16.9,15.76C226.76,170,220.8,163.87,221,156Z" transform="translate(44 -5)"/><path class="cls-138" d="M313.57,130.06c-.05-7.77,1.62-14.91,7.36-20.62,2.66-2.64,5.6-3.51,8.94-1.42,8.85,5.53,9.79,28.42,1.4,34.68-3.39,2.53-7,5.53-11.46,3.2s-6.09-6.48-6.23-11.32C313.53,133.08,313.57,131.57,313.57,130.06Z" transform="translate(44 -5)"/><path class="cls-139" d="M395.3,160.23c.52-6.67,6.18-15,11.09-23.45,2.08-3.59,12.66-.85,15.27,3.51,6.53,10.93-.32,30.27-12.55,35.39C400.33,179.37,394.91,174.76,395.3,160.23Z" transform="translate(44 -5)"/><path class="cls-140" d="M346.07,488.05c-.87-6.79,5.57-8.68,9.09-11.13,11.06-7.66,15.53-18.55,18.62-30.71.71-2.82,1-4.85-1.09-7.36-9.48-11.61-9.8-24.51-4.63-38,3,1.22,4,3.77,3.51,6.62-2.09,13.27,8.14,22.85,10.47,34.85.5,2.54,1.74,4.62.78,7.45-4.24,12.52-8.15,25.17-20.3,32.76C356.72,483.43,352.5,489,346.07,488.05Z" transform="translate(44 -5)"/><path class="cls-141" d="M346.07,488.05c5.82-.83,9-9.47,16.45-5.51.38,1.12.42,2.73,1.2,3.29,8.46,6,7.75,13.71,4.29,22-.14,3.47-2.54,3.62-5.13,3.49-4.45-2.64-5.53-10.28-12.84-8.68-.4-4.49-1.32-8.71-5.62-11.24Z" transform="translate(44 -5)"/><path class="cls-142" d="M305.79,582.09c-10.55-1.6-10.78-12.29-12.93-18.55-2.65-7.73-4.76-16.67-4.76-25.5,0-8.1,2.58-14.31,9.51-19.2,8.37-5.91,18-8.42,27.46-10.71,9-2.17,12.66,4.08,10.15,13a68.55,68.55,0,0,1-10.61,22.5c-2.35,3.24-1.22,9-1.67,13.64-3.05,7.23-8.67,12.8-12.61,19.46Z" transform="translate(44 -5)"/><path class="cls-143" d="M291.55,583.79c4.69-4.22,9.46.4,14.18-.12,3.77,8.19,9.19,16.13,4,25.73-.69,1-.54,2.46-1.29,3.29-4.25,4.71-7.41,12.12-15.41,9.89s-5.22-9.74-5.51-15.31C287.15,599.22,287,591.06,291.55,583.79Z" transform="translate(44 -5)"/><path class="cls-144" d="M291.55,583.79c-.49,9.6-2.52,19.11-1.59,28.8.33,3.42-1,7.53,3.69,9.06,4.23,1.4,6.66-1.63,9.1-4.23s4.69-5.34,7-8c-1.91,10.12-10.28,16.25-19.85,14.52-7.65-1.37-14.14-13.38-11.92-22.6,1.11-4.64,2.88-9.11,4.35-13.66C285.42,586.36,288.49,585.08,291.55,583.79Z" transform="translate(44 -5)"/><path class="cls-21" d="M304.49,808.93c5,2,9.93,3.05,15.64,2.11,21.68-3.56,44.68,17,38.31,45.6-.26,1.18-.85,2.28-1.06,3.46-3.57,19.79-5,22.08-24.4,24.67-26.55,3.54-52.05,11.7-78.29,16.41-5.37,1-10.57,7.32-14.73,4.22-3.31-2.47-2.06-9.8-3.26-14.95-2.41-10.31-1.51-21-.52-31.48.46-4.94,5.57-5.16,8.27-7.43,12.4-10.46,31.2-10.26,40.56-25.51,3.55-5.78,9.29-10.22,14-15.26C300.45,808.94,302.37,808.64,304.49,808.93Z" transform="translate(44 -5)"/><path class="cls-145" d="M300.86,796.16c3.84.79,7.25-1.14,10.86-1.74,0,1.82,0,3.64,0,5.46-1.26,3.5-4.56,3.6-7.4,4.28-4.77,1.14-9.23,2.77-12.55,6.61L290,812.58c-3.87,2.22-6.72,5.62-10,8.48-2.33,2-4.16,5.16-8.07,4.24l-.08-.06c.66-7.16-1.6-14.58,1.88-21.5C282.55,800.58,290.2,793,300.86,796.16Z" transform="translate(44 -5)"/><path class="cls-122" d="M291.79,810.77c-.55-5.28,3.22-6.43,7.12-7.46l12.83-3.43c2,4.56,5.05,3.14,8.09,1.43,2.6-1.47,5.06-1.88,7.35.51.81.84,2,1.93,1,2.95-2.27,2.31-5.16,2.66-8.31,1.87-5.43-1.36-11.08-3.78-15.42,2.3-1.3,2.14-3.45,1.77-5.45,1.83Z" transform="translate(44 -5)"/><path class="cls-122" d="M271.86,825.3c6.42-3.7,9.65-11.93,18.11-12.72-3.71,7.92-10.48,13-18.16,17.34C271,829.19,272.21,827.1,271.86,825.3Z" transform="translate(44 -5)"/><path class="cls-146" d="M300.86,796.16c-9.75.07-17.1,8.74-27.2,7.58.49-15.2,2.61-30.34,1.88-45.59,8-2.9,14.52.3,19.9,5.8,2.92,3,5.47,6.33,8.86,8.86.32,5.28-.05,10.72,1.15,15.8C306.58,793.39,302.45,793.73,300.86,796.16Z" transform="translate(44 -5)"/><path class="cls-147" d="M317,371.79c6.32-5.18,9.79,1.27,13.59,3.93,3.29,2.3,6.07,7.18,3,10.88-9.62,11.46-29.47,21.08-43.53,9.36-1.69-1.4-4.14-2.53-4.07-5.37,0-.13.51-.28.79-.36a6.58,6.58,0,0,1,.89-.13,23.19,23.19,0,0,1,7.18-.77c9.34.55,15.69-3.41,18.71-12.4C314.24,374.9,315.09,373,317,371.79Z" transform="translate(44 -5)"/><path class="cls-148" d="M317,371.79c-4.84,18.46-12.69,23.36-29.36,18.31l-4.79-7.49c1.88-2.15,4.32-1.19,6.61-1.28,9.12-.35,12.06-3.85,11.51-13.54C307.21,365.64,313.13,364.69,317,371.79Z" transform="translate(44 -5)"/><path class="cls-13" d="M261,453.34c-15.46-10.35-15.78-26.64-15.87-42.53,0-4.9,1.46-10,1.34-15.16-.07-3.16.26-6.08,3.61-7.59.54,14.93-1.59,30,3.5,44.66,2.1,6,4,11.64,9.67,15.59C268.63,452.1,265.43,453.3,261,453.34Z" transform="translate(44 -5)"/><path class="cls-149" d="M301,367.79c4.59,4.39,3,11-3.26,14.39-4.95,2.72-9.89.88-14.86.43-4.24-4.31-3.62-6.94,2.25-9.31C290.36,371.2,295.44,368.85,301,367.79Z" transform="translate(44 -5)"/><path class="cls-150" d="M348,445.47c-.09,17.86-10.48,28.28-27.64,27.71C303,472.6,289.84,460,290.09,444.1c.19-12.53,16.48-29.07,28.36-28.81C333.05,415.62,348.1,431,348,445.47Z" transform="translate(44 -5)"/><path class="cls-121" d="M324.44,963.17c5,.92,9.73-3.2,16-.84-5.88,3.94-10.59,7.94-16,.83Z" transform="translate(44 -5)"/><path class="cls-17" d="M410.94,963.64c-.65,1.71-1.61,3.35-3.49,3.61-.58.08-1.82-1.44-2-2.38-.43-2.26,1.2-3.14,3.15-3.26A2,2,0,0,1,410.94,963.64Z" transform="translate(44 -5)"/><path class="cls-151" d="M396.93,894.49c3.05,5.5,1.86,11.53,2.19,17.37-.59.7-1.05,3.12-1.52,2-3.53-8.06-8.85-6-14.61-3.28-3,1.42-6.17,2.54-9.19-.41a4.31,4.31,0,0,0-5.84-.41c-3.38,2.56-6.33,3.55-9.69-.2a3.26,3.26,0,0,0-4.89.48c-4.43,6.52-9.52,4.14-15.65,2.75-5.23-1.18-12.94-1.05-16.45,2-5.5,4.82-5.4-.63-7.6-2.07,15.48.15,29.42-5.74,43.51-11.06,12.28,2.46,24.67,1.64,37,.79C399.29,902.17,395.9,897.18,396.93,894.49Z" transform="translate(44 -5)"/><path class="cls-152" d="M337.15,444c.09,10.23-7.95,19.25-17.18,19.3-10.41.05-20.33-9.26-20.36-19.11,0-10.42,8.12-18,19.36-18C329.85,426.13,337.05,433.19,337.15,444Z" transform="translate(44 -5)"/></g></g></g></svg>